<?xml version="1.0" standalone="no"?><!DOCTYPE svg PUBLIC "-//W3C//DTD SVG 1.1//EN" "http://www.w3.org/Graphics/SVG/1.1/DTD/svg11.dtd"><svg width="100%" height="100%" viewBox="0 0 1303 261" version="1.1" xmlns="http://www.w3.org/2000/svg" xmlns:xlink="http://www.w3.org/1999/xlink" xml:space="preserve" style="fill-rule:evenodd;clip-rule:evenodd;stroke-linejoin:round;stroke-miterlimit:1.41421;"><g id="exportable"><g id="mar"><g><path d="M1301.75,182.313l-1,-0.001l-220,0l-96.016,7.5c-84,3 -117.015,9.5 -117.015,9.5c-78,15 -129.031,17 -129.031,17c-160,-4 -208.063,7 -208.063,7c-106,17 -235.125,15 -235.125,15c-54,-2 -274.75,22 -274.75,22l1281,0l0,-78Z" style="fill:#bbbb4d;fill-rule:nonzero;"/><path d="M1301.75,191.313l-0.826,-0.001l-181.989,0l-93.852,9.549c-69.486,2.667 -96.333,8.155 -96.333,8.155c-64.523,13.329 -97.5,16.68 -97.5,16.68c-113.49,6.471 -172.5,5.063 -172.5,5.063c-86,7.394 -165,15.701 -165,15.701c-44.669,-1.777 -251.667,13.852 -251.667,13.852l1059.67,0l0,-69Z" style="fill:#ffe678;fill-rule:nonzero;"/><g><g opacity="0.699997"><clipPath id="_clip1"><rect x="0" y="172.313" width="1300.75" height="88"/></clipPath><g clip-path="url(#_clip1)"><path d="M1077.66,172.313l-97.366,8.461c-85.181,3.384 -118.661,10.718 -118.661,10.718c-79.097,16.923 -130.846,19.18 -130.846,19.18c-162.25,-4.514 -210.988,7.897 -210.988,7.897c-107.491,19.18 -238.431,16.923 -238.431,16.923c-45.305,-1.867 -206.352,16.344 -260.614,22.688l-20.75,2.132l114.852,0c65.68,-6.779 141.263,-13.587 170.212,-12.409c0,0 132.679,2.255 241.597,-16.923c0,0 49.387,-12.411 213.792,-7.898c0,0 52.435,-2.256 132.583,-19.179c0,0 33.925,-7.538 120.237,-10.923l98.659,-8.668l208.818,0l0,-12l-223.094,0Z" style="fill:#fff;fill-rule:nonzero;"/></g></g></g><path d="M693.017,173.479l-14.935,4.874l14.935,8.959l104.02,0l125.825,2.512l79.55,-0.56l21.87,-3.235l-331.265,-12.551Z" style="fill:#006175;fill-rule:nonzero;"/></g></g><g id="roca y plantas"><g><clipPath id="_clip2"><rect x="-500.602" y="-313.688" width="1802.35" height="574"/></clipPath><g clip-path="url(#_clip2)"><path d="M1301.75,35.668l-6.666,-2.189l-11.667,-0.832l-1.667,2.166l0,2.834l-2.624,0.144l-0.376,-6.478l-3,0l-1.146,8l-15.854,0l-18.999,7.666l-1.827,2.834l3.826,-0.501l0,11l2,0.635l0,22.365l58,0c-0.004,-0.084 0,-47.644 0,-47.644" style="fill:#f6ffcf;fill-rule:nonzero;"/><path d="M934.528,56.994c1.169,0.62 2.472,0.886 3.738,1.227c1.052,0.283 2.41,0.557 3.051,1.532c1.3,1.977 -2.137,3.273 -3.604,2.72c0.437,-0.435 1.146,-0.516 1.711,-0.709c0.748,-0.257 1.574,-0.549 2.375,-0.516c-1.084,0.212 -2.27,0.376 -3.379,0.443c-0.891,0.053 -2.09,0.331 -2.963,0.073c1.059,-0.193 2.119,-0.526 3.19,-0.733c1.282,-0.249 2.66,-0.734 3.947,-0.847c-0.421,0.159 -0.868,0.129 -1.308,0.186c-1.222,0.159 -2.448,0.413 -3.661,0.63c-0.936,0.167 -3.024,0.753 -3.953,0.25c-0.914,-0.494 1.546,-1.197 1.96,-1.326c1.24,-0.388 2.534,-0.66 3.807,-0.927c0.558,-0.117 1.21,-0.357 1.782,-0.295c-2.133,0.61 -5.299,1.027 -7.514,0.428c0.183,-0.722 3.029,-0.809 3.661,-0.894c1.571,-0.211 3.198,-0.622 4.783,-0.615c-0.757,0.217 -8.288,1.485 -8.284,0.566c0.004,-0.623 3.932,-0.95 4.348,-1.001c1.399,-0.173 2.78,-0.311 4.189,-0.311c-1.004,0 -7.919,0.185 -7.716,-1.251c0.164,-1.166 5.508,-0.508 6.421,-0.37c-2.344,-1.002 -5.308,-2.919 -5.302,-5.795c1.225,0.661 2.437,2.882 2.369,4.289c-0.684,-0.733 -0.717,-2.197 -0.863,-3.187c-0.183,-1.255 -0.588,-2.987 -0.176,-4.247c1.12,-0.227 2.169,1.56 2.642,2.29c1.189,1.838 1.494,3.916 1.536,6.063c-0.548,-0.94 -0.265,-2.808 -0.253,-3.836c0.02,-1.691 -0.088,-3.902 0.561,-5.469c0.771,0.683 0.86,2.769 0.944,3.725c0.11,1.268 -0.097,2.535 -0.192,3.772c-0.055,-0.362 -0.064,-0.719 -0.063,-1.094c0.002,-0.791 -0.031,-1.583 0.051,-2.37c0.176,-1.689 0.151,-3.845 0.81,-5.409c1.31,1.962 1.266,4.964 1.264,7.233c0.005,-0.904 0.095,-1.788 0.247,-2.675c0.274,-1.598 0.896,-3.112 1.206,-4.667c1.153,0.849 0.981,2.892 0.985,4.152c0.004,1.508 -0.532,3.083 -0.438,4.565c-0.071,-0.813 0.09,-1.79 0.261,-2.572c0.23,-1.052 0.501,-2.111 0.817,-3.149c0.203,-0.667 0.326,-1.728 0.735,-2.283c1.041,0.766 0.441,3.449 0.314,4.498c-0.123,1.012 -0.307,2.113 -0.639,3.066c-0.195,0.556 -0.466,1.13 -0.553,1.706c0.276,-0.671 0.633,-1.336 0.995,-1.996c1.228,-2.237 2.526,-4.694 4.011,-6.76c-0.01,1.202 -0.261,2.16 -0.723,3.287c-0.401,0.981 -0.85,1.963 -1.34,2.903c-0.635,1.219 -1.591,2.631 -1.813,4.006c0.286,-0.224 0.479,-0.717 0.742,-1.063c0.644,-0.851 1.396,-1.591 2.101,-2.396c0.899,-1.024 1.803,-2.051 2.748,-3.03c0.279,-0.288 0.755,-0.924 1.144,-0.991c0.795,1.213 -0.558,2.987 -1.321,3.783c-0.832,0.87 -1.687,1.703 -2.625,2.448c-0.448,0.355 -0.874,0.768 -1.471,0.752c0.047,-0.76 2.367,-2.008 2.932,-2.385c0.694,-0.463 3.1,-2.304 4.108,-1.716c1.114,0.649 -1.273,1.875 -1.702,2.136c-1.663,1.015 -3.526,2.201 -5.394,2.791c2.335,-0.405 4.629,-1.582 7.042,-1.431c-0.375,0.389 -1.592,0.435 -2.143,0.578c-1.267,0.329 -2.52,0.71 -3.794,1.002c-1.512,0.346 -3.725,1.295 -5.287,0.861c1.421,-0.117 12.175,0.347 11.547,1.911c-0.221,0.549 -3.81,0.039 -4.282,-0.033c-1.558,-0.24 -3.091,-0.66 -4.593,-0.977c0.325,0.238 0.841,0.298 1.239,0.397c1.735,0.435 3.524,0.62 5.274,0.987c0.602,0.125 5.641,0.913 5.535,1.942c-1.254,0.356 -2.851,-0.078 -4.128,-0.179c-1.196,-0.094 -2.401,-0.319 -3.583,-0.542c-1.143,-0.215 -2.333,-0.71 -3.451,-0.834c1.56,0.265 4.091,0.933 5.17,2.18c-1.089,0.024 -2.46,-0.444 -3.526,-0.706c-1.466,-0.361 -2.869,-0.724 -4.388,-0.651c-0.415,1.562 6.542,1.679 7.357,1.741c0.561,0.042 3.195,-0.062 3.487,0.557c0.429,0.908 -2.816,1.179 -3.219,1.26c0.693,0.13 1.453,0.18 2.149,0.308c-1.531,-0.095 -3.075,-0.426 -4.636,-0.486c-2.162,-0.083 -4.497,0.019 -6.577,-0.63c0.91,0.58 2.643,0.724 3.718,0.872c1.67,0.231 3.427,0.326 5.119,0.235c0.012,-0.502 -0.929,-0.797 -1.331,-0.915c-2.899,-0.848 -6.259,-0.764 -9.254,-0.764c2.346,0 4.767,0.18 7.14,0.299c0.454,0.023 4.172,0.323 4.279,-0.299c0.212,-1.243 -5.254,-0.862 -5.886,-1.5c0.27,-0.289 1.082,-0.275 1.489,-0.312c1.171,-0.109 2.366,-0.234 3.544,-0.252c0.969,-0.014 1.949,-0.018 2.906,-0.125c0.518,-0.057 0.948,-0.089 0.377,-0.515c-0.729,-0.545 -2.531,-0.252 -3.381,-0.171c-1.024,0.099 -2.006,0.188 -3.037,0.188c-0.438,0 -1.156,0.105 -1.524,-0.063c1.261,-0.495 9.232,-1.127 9.076,-2.066c-0.283,-1.701 -7.84,1.347 -8.892,0.879c1.168,-0.906 2.893,-1.284 4.326,-1.756c0.877,-0.29 2.807,-0.559 2.614,-1.797c-1.365,-0.194 -3.018,0.667 -4.252,1.134c-1.22,0.463 -2.752,1.517 -4.048,1.594c0.301,-0.402 0.991,-0.746 1.418,-1.035c0.601,-0.406 1.239,-0.757 1.867,-1.119c0.842,-0.485 1.696,-0.926 2.563,-1.36c0.743,-0.372 1.944,-0.723 2.526,-1.343c-1.756,0.471 -3.445,1.208 -5.124,2.042c-2.259,1.121 -5.171,2.153 -6.983,3.946c2.034,-1.285 4.209,-2.5 6.318,-3.72c1.932,-1.118 3.902,-1.988 6.031,-2.65c0.865,-0.269 1.965,-0.769 2.895,-0.686c-1.829,0 -4.052,-0.059 -5.932,0.452c-2.113,0.574 -4.148,1.896 -6.023,3.003c-1.559,0.919 -3.378,1.692 -4.744,2.901c3.177,-3.342 7.555,-5.777 12.096,-6.781c-4.294,-0.31 -9.543,2.094 -12.075,5.501c0.43,-0.283 0.727,-0.723 1.102,-1.08c0.888,-0.844 1.927,-1.529 2.901,-2.273c1.132,-0.863 2.961,-2.863 4.531,-2.799c-0.463,-0.157 -1.186,-0.059 -1.672,0.094c-0.664,0.211 -1.297,0.668 -1.906,1.046c-1.756,1.092 -3.626,2.23 -4.942,3.842c1.751,-2.729 4.411,-4.776 6.319,-7.383c-1.071,-0.262 -2.239,1.551 -2.85,2.191c-0.832,0.871 -1.705,1.71 -2.515,2.595c-0.424,0.463 -1.394,1.142 -1.492,1.798c-0.075,-1.212 1.747,-3 2.427,-3.832c0.808,-0.989 1.64,-1.945 2.454,-2.931c0.388,-0.471 0.897,-1.096 0.987,-1.71c-1.135,-0.079 -2.279,1.731 -2.901,2.464c-0.863,1.021 -2.605,2.95 -2.406,4.431c0.215,-0.68 0.556,-1.322 0.907,-1.95c0.369,-0.658 0.757,-1.296 1.109,-1.961c0.484,-0.915 1.435,-2.138 1.504,-3.151c-3.045,0.691 -4.456,4.384 -4.455,7.25c0,-2.21 -0.06,-4.382 -0.435,-6.573c-0.058,2.307 -0.44,4.575 -0.44,6.899c0.046,-0.555 -0.233,-1.143 -0.315,-1.682c-0.284,-1.891 -0.602,-3.844 -0.818,-5.761c0.236,0.801 -0.117,1.871 -0.117,2.701l0,1.819c0,1.116 0.442,2.342 0.299,3.424c-0.405,-1.397 -0.806,-2.811 -1.258,-4.222c-0.366,-1.144 -0.604,-2.317 -0.916,-3.48c-0.158,-0.586 -0.504,-1.61 -0.464,-2.102c0.583,1.401 0.741,3.186 1.184,4.663c0.33,1.099 0.634,2.202 0.948,3.299c0.158,0.555 0.445,1.174 0.443,1.732c-0.486,-0.555 -0.898,-1.485 -1.311,-2.163c-0.521,-0.852 -1.421,-2.809 -2.419,-3.135c0.819,0.82 1.54,1.854 2.322,2.744c0.528,0.601 1.7,1.561 1.739,2.41c-0.459,-0.268 -0.837,-0.752 -1.268,-1.089c-0.441,-0.344 -0.94,-0.629 -1.403,-0.963c-0.74,-0.535 -2.006,-1.729 -2.936,-1.743c0.331,0.627 1.081,1.194 1.646,1.674c1.001,0.848 2.023,1.741 3.012,2.555c-1.9,-0.944 -3.9,-1.809 -5.791,-2.927c2.121,1.663 4.966,2.487 7.2,4.07c-2.141,-0.868 -4.53,-1.737 -6.781,-2.518c1.772,1.202 4.256,1.374 5.923,2.719c-0.598,-0.129 -1.192,-0.337 -1.824,-0.457c-1.607,-0.305 -3.391,0.027 -4.97,-0.527c1.858,1.077 4.463,0.846 6.348,2.037c-1.606,-0.983 -3.917,-0.663 -5.7,-1.302c2.168,0.728 4.441,1.772 6.674,2.31c-0.59,-0.174 -1.224,-0.267 -1.835,-0.378c-1.349,-0.245 -2.755,-0.04 -4.084,-0.382" style="fill:#002800;fill-rule:nonzero;"/><path d="M1141.33,67.729c-0.359,-0.751 -0.542,-1.639 -0.316,-2.433c0.18,-0.639 0.452,-1.721 0.797,-2.229c-0.005,0.406 0.076,0.805 0.279,1.165c0.2,-0.161 0.392,-0.352 0.478,-0.632c0.027,0.216 0.2,0.477 0.238,0.701c0.441,-0.61 0.323,-1.438 0.585,-2.116c0.14,0.428 0.222,0.944 0.294,1.394c0.429,-0.551 0.45,-1.26 0.57,-1.892c0.162,0.39 0.301,0.794 0.425,1.194c0.334,-0.742 -0.012,-1.694 0.369,-2.375c0.587,0.803 0.623,2.046 0.789,2.978c0.294,-0.254 0.355,-0.669 0.496,-1.029c-0.008,0.555 -0.108,1.183 0.109,1.697c0.304,-0.255 0.47,-0.602 0.641,-0.952c-0.009,0.65 -0.061,1.384 0.029,2.006c0.086,-0.151 0.285,-0.313 0.367,-0.516c0.024,0.351 0.012,0.74 0.025,1.1c0.269,-0.199 0.515,-0.432 0.725,-0.682c0.044,0.655 0.073,1.384 -0.317,1.871" style="fill:#002800;fill-rule:nonzero;"/><path d="M1154.42,65.896c-0.219,-0.861 -0.604,-1.675 -0.822,-2.494c0.364,0.26 0.761,0.43 1.162,0.639c0.044,-0.756 -0.31,-1.701 -0.547,-2.417c0.356,0.185 0.75,0.379 1.027,0.668c0.112,-1.363 -0.764,-3.002 -1.315,-4.195c0.526,1.018 1.557,1.702 2.099,2.558c0.155,-0.614 0.086,-1.437 0.167,-2.068c0.294,0.562 0.53,1.156 0.821,1.715c0.277,-0.776 0.433,-1.598 0.675,-2.366c0.181,0.362 0.39,0.703 0.459,1.084c0.253,-0.342 0.373,-0.816 0.533,-1.202c0.068,0.246 0.275,0.461 0.396,0.681c0.265,-0.242 0.361,-0.644 0.449,-0.995c0.048,0.167 0.113,0.268 0.141,0.441c0.153,-0.582 0.166,-1.262 0.223,-1.852c0.435,0.513 0.807,1.653 0.86,2.369c0.12,-0.346 0.201,-0.708 0.358,-1.031c0.022,0.22 0.167,0.433 0.207,0.626c0.185,-0.32 0.326,-0.665 0.469,-1.006c0.133,0.305 0.265,0.71 0.359,1.056c0.056,-0.164 0.245,-0.356 0.3,-0.56c0.289,0.424 0.343,1.075 0.498,1.598c0.167,-0.314 0.277,-0.711 0.331,-1.083c0.213,0.245 0.318,1.098 0.328,1.499c0.276,-0.138 0.377,-0.53 0.499,-0.842c0.281,0.273 0.403,0.718 0.501,1.095c0.39,-0.292 0.474,-0.947 0.591,-1.418c0.076,0.459 0.214,1.018 0.332,1.491c0.17,-0.378 0.292,-0.758 0.328,-1.171c0.313,0.27 0.257,0.796 0.42,1.183c0.16,-0.252 0.271,-0.604 0.418,-0.897c0.225,0.334 0.063,0.714 0.312,0.993c0.07,-0.108 0.271,-0.243 0.333,-0.361c0.04,0.099 0.227,0.262 0.272,0.424c0.062,-0.107 0.235,-0.257 0.303,-0.393c0.021,0.408 -0.029,0.901 0.082,1.253c0.313,-0.152 0.502,-0.45 0.535,-0.792c0.098,0.42 -0.083,0.996 0.209,1.268c0.183,-0.45 0.522,-0.767 0.452,-1.278c0.219,0.543 0.281,1.589 0.332,2.184c0.294,0.012 0.521,-0.236 0.634,-0.481c0.106,0.268 0.17,0.541 0.194,0.824c0.229,-0.112 0.425,-0.361 0.508,-0.636c0.057,0.21 0.176,0.312 0.147,0.6c0.103,-0.41 0.168,-0.846 0.183,-1.256c0.133,0.256 0.25,0.524 0.343,0.795c0.16,-0.531 0.089,-1.368 -0.005,-1.892c0.239,0.298 0.461,0.711 0.634,0.969c0.045,-0.805 -0.349,-1.603 -0.241,-2.351c0.261,0.513 0.426,1.198 0.654,1.69c0.031,-0.325 -0.005,-0.734 0.078,-0.997c0.257,0.38 0.175,0.845 0.289,1.247c0.192,-0.337 0.423,-0.781 0.562,-1.155c0.335,0.106 0.47,0.472 0.609,0.825c0.117,-0.306 0.208,-0.665 0.376,-0.928c0.027,0.254 0.191,0.488 0.25,0.717c0.175,-0.317 0.345,-0.66 0.37,-1.031c0.311,0.108 0.421,0.547 0.551,0.868c0.045,-0.632 0.027,-1.295 0.011,-1.937c0.293,0.432 0.35,0.928 0.594,1.364c-0.001,-0.36 0.054,-0.698 0.094,-1.049c0.368,0.251 0.431,0.805 0.605,1.203c0.04,-0.197 0.209,-0.387 0.223,-0.634c0.344,0.275 0.419,0.893 0.636,1.255c0.041,-0.284 0.131,-0.52 0.113,-0.814c0.33,0.127 0.372,0.631 0.556,0.891c0.165,-0.443 -0.018,-0.985 0.263,-1.34c0.276,0.204 0.422,0.586 0.422,0.953c0,-0.533 -0.017,-1.073 0.011,-1.603c0.35,0.21 0.574,0.993 0.72,1.376c0.023,-0.532 0.252,-1.017 0.282,-1.539c0.328,0.245 0.442,1.362 0.414,1.836c0.614,-0.622 0.531,-2.039 0.838,-2.851c0.501,0.854 0.376,1.885 0.41,2.855c0.49,-0.523 0.272,-1.36 0.742,-1.857c0.559,0.651 0.217,2.239 0.263,3.095c0.383,-0.279 0.549,-0.896 0.803,-1.245c-0.026,0.472 -0.012,1.367 0.237,1.75c0.223,-0.309 0.43,-0.633 0.617,-0.965c0.079,0.452 0.083,0.898 0.074,1.362c0.068,-0.288 0.245,-0.365 0.326,-0.477c0.036,0.682 -0.078,1.402 -0.047,2.035c0.339,-0.24 0.625,-0.535 0.979,-0.724c0.283,0.499 0.165,1.265 0.165,1.848" style="fill:#002800;fill-rule:nonzero;"/><path d="M1082.97,65.969c0,-2.848 0.627,-5.107 1.778,-7.642c0.688,-1.515 1.789,-3.902 3.343,-4.674c0.011,-0.036 0.004,-0.058 0.019,-0.091c-0.761,0.042 -1.927,1.565 -2.413,2.045c-0.689,0.68 -1.237,1.487 -1.738,2.377c-1.089,1.933 -1.796,4.129 -2.145,6.327c-0.08,0.502 -0.217,1.037 -0.2,1.565c-0.277,-1.043 0.129,-2.162 0.138,-3.189c0.009,-1.045 0.124,-2.062 0.124,-3.124c0,-2.37 -0.336,-4.363 -1.109,-6.563c-0.375,-1.066 -0.826,-2.028 -1.223,-3.077c-0.058,1.109 0.467,2.293 0.584,3.395c0.057,0.539 0.171,1.126 0.246,1.681c0.188,1.363 0.408,2.678 0.408,4.078c0,2.438 -0.031,5.015 -0.031,7.361l0,-0.125" style="fill:#312210;fill-rule:nonzero;"/><path d="M1088.71,66.563c-0.665,-0.647 -1.42,-1.243 -1.999,-1.943c0.593,0.144 1.205,0.135 1.774,0.31c-0.335,-0.385 -0.791,-0.632 -1.117,-0.995c0.345,-0.044 0.789,0.12 1.132,0.166c-0.242,-0.549 -1.269,-1.651 -1.898,-1.664c0.446,-0.035 0.955,0.101 1.368,0.264c-0.036,-0.523 -0.726,-1.351 -0.932,-1.923c0.296,0.118 0.603,0.209 0.894,0.338c0.106,-0.342 -0.063,-0.816 -0.243,-1.113c0.371,0.119 0.818,0.273 1.149,0.504c0.199,-0.866 -0.191,-1.908 -0.34,-2.766c0.576,0.6 1.306,1.081 1.808,1.74c0.255,-0.75 0.062,-1.798 -0.103,-2.568c0.053,0.424 0.299,0.839 0.423,1.234c0.453,-0.767 0.136,-1.834 0.414,-2.623c0.426,0.663 0.362,1.59 0.766,2.244c0.275,-0.62 0.275,-1.494 0.448,-2.166c0.143,-0.553 0.399,-1.107 0.691,-1.592c0.074,0.936 0.213,1.868 0.35,2.798c0.032,0.218 0.041,0.461 0.13,0.656c0.363,-0.938 0.44,-2.107 0.577,-3.102c0.085,-0.615 0.115,-1.362 0.416,-1.905c0.161,1.126 0.494,2.172 0.594,3.31c0.072,0.833 0.004,1.692 0.037,2.528c0.382,-0.613 0.64,-1.49 0.798,-2.181c0.33,0.858 0.235,1.951 0.286,2.867c0.16,-0.233 0.217,-0.566 0.373,-0.827c0.054,0.778 0.116,1.558 0.071,2.342c0.224,-0.27 0.37,-0.665 0.549,-0.956c0.196,0.717 -0.153,1.606 0.114,2.284c0.215,-0.06 0.394,-0.279 0.551,-0.44c0.283,0.326 0.192,1.055 0.158,1.488c0.276,-0.227 0.395,-0.632 0.637,-0.876c0.218,0.354 0.105,0.944 0.131,1.353c0.275,-0.098 0.494,-0.49 0.702,-0.708c0.281,0.264 0.155,0.963 0.171,1.337c0.575,-0.567 0.563,0.197 0.579,0.667c0.016,0.47 -0.026,0.947 0.009,1.414c0.022,-0.028 0.078,-0.077 0.109,-0.115c0.028,0.51 0.027,1.05 -0.077,1.535" style="fill:#002800;fill-rule:nonzero;"/><path d="M1045.38,34.125c1.091,-1.136 1.9,-1.351 3.438,-1.497c1.056,-0.1 2.203,-0.186 3.201,0.198c1.016,0.391 1.949,1.026 2.5,1.973c0.432,0.742 0.632,1.831 1.178,2.529c-0.091,-0.896 0.583,-1.991 0.886,-2.828c0.214,-0.592 0.27,-1.175 0.563,-1.75c0.572,-1.122 1.249,-1.413 2.172,-2.076c0.366,1.024 0.167,3.225 -0.201,4.249c-0.351,0.978 -1.154,1.872 -1.563,2.815c0.85,-1.363 1.965,-2.731 3.576,-2.912c0.956,-0.107 1.891,-0.053 2.686,0.424c0.788,0.472 1.519,1.041 1.89,1.939c0.308,0.743 0.237,1.576 0.489,2.354c0.168,-1.517 -1.915,-2.592 -3.179,-1.729c-0.562,0.384 -0.71,1.231 -1.084,1.735c-0.514,0.69 -1.189,0.801 -1.783,1.277c0.44,0.268 1.286,0.144 1.796,0.233c0.503,0.087 1.043,0.195 1.562,0.317c0.987,0.234 1.882,0.56 2.806,0.923c1.06,0.416 1.978,0.864 2.518,1.903c0.553,1.062 0.884,2.182 0.989,3.364c0.068,0.748 -0.061,1.727 -0.263,2.434c-0.525,-0.821 -0.752,-1.527 -1.724,-1.927c-0.745,-0.306 -1.599,-0.581 -2.404,-0.699c-1.486,-0.221 -3.141,0.743 -3.842,2.123c1.107,0.621 2.839,-0.043 3.994,0.364c1.209,0.427 2.047,0.502 2.362,1.597c-0.385,-0.286 -1.768,-0.102 -2.246,-0.133c0.367,0.356 0.536,0.858 1.12,0.94c0.57,0.081 1.469,-0.299 2.001,-0.34c1.438,-0.113 2.063,0.143 2.958,0.762c0.998,0.689 1.248,1.227 1.271,2.48c0.018,0.958 -0.112,1.261 -0.935,2.192c-0.046,0.053 -0.11,0.135 -0.154,0.183c-0.383,-1.252 -1.053,-2.029 -2.205,-2.681c-0.964,-0.546 -2.226,-0.974 -2.951,0.25c-0.331,0.559 -0.543,0.935 0.124,1.153c0.683,0.223 1.409,0.197 2.082,0.564c1.084,0.591 1.536,1.561 1.811,2.673c0.216,0.874 0.57,1.789 0.702,2.685c0.136,0.929 -0.247,1.864 -0.323,2.787c-0.56,-1.547 -1.507,-2.529 -2.626,-3.659c-1.046,-1.057 -2.116,-1.967 -3.365,-2.617c0.458,1.312 1.525,2.227 1.722,3.629c0.106,0.756 0.024,1.445 -0.059,2.164c-0.478,0.037 -1.095,-1.343 -1.346,-1.74c-0.412,-0.654 -0.833,-1.318 -1.283,-1.938c-0.454,-0.625 -1.759,-2.427 -2.561,-2.487c-1.21,-0.091 -1.697,2.695 -1.936,3.549c-0.15,0.541 -0.314,1.052 -0.35,1.626c-0.03,0.482 0.213,1.056 0.111,1.5c-0.025,0.11 0.002,0.252 -0.005,0.366c-1.132,0.065 -2.546,0.189 -3.669,0.009c-0.486,-0.078 -0.483,0.091 -0.578,-0.491c-0.054,-0.335 0.063,-0.594 0.129,-0.898c0.12,-0.555 0.265,-1.084 0.359,-1.66c0.284,-1.718 -0.359,-4.751 -2.609,-4.765c-1.637,-0.01 -1.354,3.828 -1.502,4.971c-0.001,-1.189 0.041,-2.002 -0.5,-3.049c-0.472,-0.914 -0.644,-2.088 -0.938,-3.108c-0.525,-1.822 -3.378,-3.468 -5.068,-2.155c0.871,-0.712 1.877,-1.44 2.881,-1.908c0.438,-0.204 1.196,-0.29 1.104,-0.903c-0.045,-0.309 -0.478,-0.474 -0.479,-0.847c-0.001,-0.375 0.149,-0.364 0.373,-0.574c0.365,-0.342 0.781,-0.591 1.08,-0.988c0.672,-0.896 0.39,-2.516 0.059,-3.503c-0.389,-1.163 -1.112,-1.974 -2.182,-2.546c-1.312,-0.701 -3.091,-1.388 -4.616,-1.001c-1.398,0.353 -2.758,1.456 -3.517,2.58c-0.41,-3.337 3.518,-4.454 6.067,-4.343c2.238,0.099 4.366,1.045 5.998,2.488c0.226,0.2 0.505,0.364 0.694,0.637c0.458,-1.642 -0.949,-3.495 -2.331,-4.14c-0.581,-0.271 -1.361,-0.424 -2,-0.252c-0.664,0.18 -1.102,0.747 -1.731,1.008c1.204,-0.848 2.066,-2.026 3.606,-2.24c1.248,-0.175 3.134,0.267 3.641,1.53c-0.288,-0.947 -1.608,-2.316 -2.455,-2.907c-0.572,-0.399 -1.192,-0.74 -1.747,-1.12c-0.588,-0.403 -1.226,-0.843 -1.875,-1.113c-0.63,-0.262 -1.45,-0.213 -2.002,-0.578" style="fill:#002800;fill-rule:nonzero;"/><path d="M1012.19,4.375c-0.116,1.056 2.118,1.732 2.875,1.75c1.048,0.024 2.069,-0.56 2.305,-1.614c-0.737,0.021 -1.577,0.593 -2.367,0.68c-0.734,0.08 -1.642,0.159 -2.302,-0.077c-0.168,-0.251 -0.527,-0.507 -0.761,-0.614" style="fill:#002800;fill-rule:nonzero;"/><path d="M1009.62,7.75c1.088,-0.019 2.352,0.267 3.185,0.889c0.763,0.57 1.138,1.368 1.69,2.102c-1.124,-0.149 -2.041,-0.952 -3,-1.432c-0.648,-0.325 -1.571,-0.67 -2,-1.309" style="fill:#002800;fill-rule:nonzero;"/><path d="M1015.19,10.375c1.078,-1.639 3.021,-2.458 4.856,-3.049c-0.623,-0.069 -1.86,1.528 -2.372,1.91c-0.601,0.449 -1.67,0.924 -2.422,0.952" style="fill:#002800;fill-rule:nonzero;"/><path d="M1008.88,11.48c0.947,0.179 1.867,0.114 2.779,0.449c0.54,0.197 1.062,0.448 1.554,0.72c0.634,0.35 1.404,1.001 1.692,1.709c-0.586,0.001 -1.283,-0.297 -1.857,-0.418c-0.624,-0.131 -1.272,-0.259 -1.877,-0.51c-0.524,-0.218 -1.076,-0.508 -1.583,-0.835c-0.488,-0.315 -0.729,-0.668 -1.143,-1.035c0.452,0.157 1.004,0.07 1.435,0.253" style="fill:#002800;fill-rule:nonzero;"/><path d="M1014.62,18.688c-1.207,-0.712 -2.098,-3.719 -3.995,-3.231c0.148,0.863 1.221,2.168 1.975,2.533c-1.122,-0.55 -2.219,-1.088 -3.279,-1.725c-0.626,-0.375 -1.639,-0.943 -2.373,-0.808c1.023,1.634 3.257,3.005 5.172,3.168c1.18,0.101 2.18,0.147 3.348,-0.262c0.973,-0.342 1.965,-0.635 2.947,-0.928c0.423,-0.125 2.752,-0.788 2.707,-1.308c-0.072,-0.841 -2.802,0.428 -3.233,0.498c0.676,0.072 1.581,-0.93 1.663,-1.502c-0.953,-0.69 -4.422,2.785 -5.057,3.502" style="fill:#002800;fill-rule:nonzero;"/><path d="M1014.62,23c-1.228,-2.016 -2.469,-3.429 -4.727,-3.852c1.051,1.636 2.74,2.344 4.251,3.358c-0.914,-0.425 -1.893,-0.732 -2.777,-1.192c-0.674,-0.35 -1.253,-0.801 -1.934,-1.14c-1.3,-0.647 -2.947,-0.849 -4.426,-0.721c2.312,3.429 6.02,3.11 9.551,3.11" style="fill:#002800;fill-rule:nonzero;"/><path d="M1015.94,23.063c0.507,-1.133 2.138,-2.061 3.109,-2.7c1.304,-0.856 2.847,-0.868 4.254,-1.356c-0.193,0.681 -1.301,1.142 -1.866,1.556c-0.695,0.507 -1.421,1.036 -2.184,1.425c-1.402,0.716 -2.524,1.32 -4.125,1.325" style="fill:#002800;fill-rule:nonzero;"/><path d="M1014.62,26.813c-0.343,-0.5 -1.332,-0.683 -1.872,-0.878c-0.753,-0.274 -1.486,-0.712 -2.306,-0.803c0.233,0.782 1.739,1.37 2.431,1.615c1.198,0.424 1.708,-0.329 2.702,-0.869c0.93,-0.505 1.989,-1.241 3.045,-1.616c0.329,-0.116 1.259,-0.466 1.19,0.178c-0.046,0.452 -1.117,0.767 -1.438,0.935c-1.427,0.745 -2.787,1.308 -4.377,1.625" style="fill:#002800;fill-rule:nonzero;"/><path d="M1011.47,28.951c0.891,0.329 1.768,0.762 2.646,1.073c0.936,0.331 2.09,-0.107 2.983,-0.412c1.193,-0.406 2.381,-0.841 3.513,-1.41c0.503,-0.251 2.325,-1.014 2.378,-1.616c-1.022,-0.144 -2.585,0.522 -3.555,0.838c-1.067,0.346 -1.987,0.83 -2.954,1.392c-0.407,0.236 -0.753,0.567 -1.159,0.806c-0.522,0.308 -0.559,0.305 -1.014,0.054c-0.944,-0.52 -1.763,-1.167 -2.777,-1.602c-0.87,-0.372 -2.096,-1.093 -3.091,-1.066c0.472,1.144 1.956,1.547 3.03,1.943" style="fill:#002800;fill-rule:nonzero;"/><path d="M1014.83,33.131c-0.274,-0.607 -0.767,-1.208 -1.25,-1.615c-0.605,-0.509 -1.209,-1.067 -1.909,-1.342c-1.277,-0.502 -2.627,-1.462 -3.973,-1.661c0.835,1.923 2.728,2.912 4.423,3.722c0.895,0.426 1.889,0.658 2.688,1.14" style="fill:#002800;fill-rule:nonzero;"/><path d="M1013.94,37.438c-1.261,-0.876 -2.702,-1.784 -4.034,-2.686c-1.195,-0.81 -4.361,-2.363 -4.081,-4.118c1.622,-0.257 3.422,1.388 4.535,2.364c1.315,1.154 2.504,2.507 3.83,3.69" style="fill:#002800;fill-rule:nonzero;"/><path d="M1015.69,42c-0.822,0.171 -1.78,0.062 -2.63,0.062c-5.577,0 -13.511,0.973 -16.287,-5.18c0.097,0.031 0.192,0.11 0.292,0.134c1.095,0.263 2.129,1.214 3.236,1.597c1.295,0.448 2.711,0.663 4.018,1.012c1.987,0.53 3.992,1.148 6.015,1.563c1.489,0.305 3.043,0.518 4.459,0.989c-1.786,-0.72 -3.694,-1.103 -5.464,-2.038c-0.856,-0.452 -4.89,-2.595 -4.272,-3.9c1.819,0.381 3.265,1.162 4.879,2.15c1.402,0.858 2.759,2.086 4.379,2.424" style="fill:#002800;fill-rule:nonzero;"/><path d="M1014.62,34.25c0.59,-1.682 2.791,-3.261 4.327,-4.049c1.404,-0.721 2.912,-1.218 4.351,-1.743c0.153,1.755 -2.719,3.488 -3.977,4.109c-1.61,0.795 -3.724,1.932 -5.525,1.995c0.877,0.117 2.364,-0.637 3.246,-0.929c0.736,-0.244 1.483,-0.471 2.189,-0.803c0.833,-0.392 1.62,-0.862 2.436,-1.257c1.057,-0.512 2.23,-0.781 3.328,-1.118c0.59,-0.182 1.686,-0.601 2.245,-0.161c-4.022,2.535 -8.828,4.206 -13.557,4.206" style="fill:#002800;fill-rule:nonzero;"/><path d="M1014.5,38c1.348,-2.051 3.408,-2.802 5.531,-3.938c0.513,-0.276 3.453,-1.907 2.417,-0.07c-0.62,1.098 -2.375,1.788 -3.442,2.261c-1.039,0.46 -2.149,0.808 -3.204,1.195c-0.496,0.182 -1.536,0.73 -1.614,1.027" style="fill:#002800;fill-rule:nonzero;"/><path d="M1015.5,41.313c1.56,-0.861 2.969,-1.914 4.502,-2.88c1.388,-0.875 2.893,-1.662 4.398,-2.323c0.734,-0.322 1.682,-0.824 2.464,-0.85c0.675,1.947 -4.306,3.192 -5.524,3.601c-1.106,0.372 -2.245,0.685 -3.351,0.954c-0.861,0.211 -1.954,0.337 -2.709,0.815c1.51,-0.038 3.272,-1.026 4.736,-1.442c1.007,-0.287 2.028,-0.584 3.048,-0.75c0.463,-0.075 1.41,-0.339 1.876,-0.126c0.864,0.392 -0.314,0.834 -0.737,1c-1.702,0.662 -3.544,1.147 -5.377,1.423c-1.691,0.255 -3.401,0.768 -5.076,0.938c-0.246,0.026 -0.5,0.014 -0.75,0.014" style="fill:#002800;fill-rule:nonzero;"/><path d="M1014.19,38.475c-0.028,-0.813 -2.628,-2.502 -3.236,-3.052c-0.349,-0.316 -0.727,-0.558 -1.139,-0.784c-0.887,-0.486 -1.821,-0.882 -2.747,-1.184c-0.9,-0.294 -1.872,-0.509 -2.818,-0.708c-0.882,-0.185 -1.949,-0.584 -2.844,-0.495c2.323,2.313 5.132,3.265 8.036,4.496c1.611,0.684 3.318,1.201 5.06,1.252" style="fill:#002800;fill-rule:nonzero;"/><path d="M1013.5,2.438c0.73,1.312 3.083,0.908 3.359,-0.479c-1.132,-0.055 -2.179,0.945 -3.359,0.728" style="fill:#002800;fill-rule:nonzero;"/><path d="M1014.75,0l-1.5,47.313l2.5,0l-1,-47.313Z" style="fill:#312210;fill-rule:nonzero;"/><rect x="1279.75" y="66.313" width="1" height="2" style="fill:#00002b;fill-rule:nonzero;"/><path d="M1014.62,14.188c0.67,0.067 1.132,-0.392 1.623,-0.751c0.499,-0.363 0.972,-0.528 1.537,-0.764c1.061,-0.44 2.174,-0.947 3.273,-1.096c-0.381,0.031 -0.98,0.865 -1.29,1.175c-0.386,0.385 -0.789,0.767 -1.266,0.95c-1.189,0.459 -2.337,0.548 -3.627,0.548" style="fill:#002800;fill-rule:nonzero;"/><path d="M905.75,70.313l0,10.999l2,0.635l0,22.365l147,0l-0.999,-53l4.999,0l0,-2l-15.333,-10l-13.667,0l-2,0l-4,0l-9.499,3l-19.501,0l-15.666,4.5l-0.416,1.667l2.082,0.5l0,10.333l-7,0l-14.666,-4.833l-11.667,-0.834l-1.667,2.167l0,2.834l-2.624,0.145l-0.376,-6.479l-3,0l-1.146,8l-15.854,0l-18.999,7.667l-1.827,2.833l3.826,-0.5Z" style="fill:#f6ffcf;fill-rule:nonzero;"/><rect x="1099.75" y="59.313" width="36" height="12" style="fill:#dbd7d4;fill-rule:nonzero;"/><path d="M1135.75,59.313l1,1.499l0,7.5l-1,0l0,-9Z" style="fill:#666d68;fill-rule:nonzero;"/><path d="M1051.75,62.25l58,5.062l0,6.001l-58,4.711l0,-15.774Z" style="fill:#002000;fill-rule:nonzero;"/><path d="M976.75,76.313l5,-0.001l0,3.001l3,-0.001l0,-2.999l2,-0.001l0,3.001l3,-0.001l0,-2.999l2,-0.001l0,3.001l4,-0.001l0,6.001l-19,-0.001l0,-8.999Z" style="fill:#a69e91;fill-rule:nonzero;"/><path d="M1245.75,61.313l12,-0.001l0,-3l1,0l0,3l2,0l0,12l-6,0l0,-9l-3,-1.5l0,4.5l-6,0l0,-6Z" style="fill:#655048;fill-rule:nonzero;"/><path d="M1264.75,58.313l3,-0.001l0,2l5,0l0,-1l1,0l0,4l2,0l1,1.25l0,7.75l-12,0l0,-14Z" style="fill:#655048;fill-rule:nonzero;"/><path d="M1107.75,66.313l32,-0.001l0,2.001l-22,0.999l0,-0.999l-10,-2.001Z" style="fill:#ba4500;fill-rule:nonzero;"/><path d="M695.417,180.053l122.417,3.88l59.916,2.38l55,0l8.25,1l62.75,2l85.668,-2l49.333,0.334l53,-1.334l54.666,0.334l55.333,-0.334l0,-123l-89,0l-15,2.5l-20.5,-2.5l-152,14.5l-16,3.5l-4.5,3.5l-6.125,-4.5l-13.875,0l-7,3.5l-4.5,-2l-6.5,0.5l-1,4.5l-5.5,4l-0.5,11l-21.5,-1l-48,7.5l-23,1l-24,-7l-29,-1.5l-15,-1l-14,3l-32.667,0.167l-13.333,3.166l-5,-0.666l-4.5,3l-9.333,0.166l-9.917,5.5l-3.75,-0.5l0,3.667l-5.167,0.667l-2.917,5.333l-2.916,3l0,6l-7,11.834l2.75,9.5l-4.75,6l0,11.666l8.667,8.74Z" style="fill:#bcc39d;fill-rule:nonzero;"/><path d="M907.75,70.313l16.843,-0.001l10.157,11.688l0,11.313l-27,-0.001l0,-22.999Z" style="fill:#a69e91;fill-rule:nonzero;"/><path d="M877,75.146c-0.514,-1.207 -2.344,-1.821 -3.519,-2.229c-1.314,-0.457 -3.347,-1.034 -4.77,-0.517c0.602,-0.025 1.154,-0.469 1.725,-0.569c0.501,-0.088 1.052,0.007 1.564,-0.017c1.025,-0.047 2.271,0.172 3.244,0.065c-0.631,-1.028 -1.99,-1.2 -2.973,-1.798c1.495,-0.172 2.625,-0.54 4.033,0.133c-0.857,-0.418 -1.773,-0.86 -2.612,-1.301c1.2,-0.265 2.319,-0.564 3.641,-0.436c0.579,0.056 1.076,0.274 1.667,0.336c0.605,0.062 1.034,-0.134 1.656,-0.096c-0.128,-0.312 -0.579,-0.54 -0.877,-0.829c0.531,0.17 2.466,0.347 2.867,-0.097c0.852,-0.943 -0.952,-1.427 -1.484,-1.558c-2.124,-0.52 -4.882,-0.583 -6.951,0.229c0.913,-0.123 1.991,-1.168 3.039,-1.395c0.868,-0.188 1.737,-0.176 2.642,-0.169c-1.157,-0.387 -2.471,-0.98 -3.704,-0.919c1.655,-0.103 3.076,-0.954 4.638,-0.019c-1.116,-0.096 -2.157,-0.979 -3.301,-1.147c2.154,0 4.09,0.157 6.037,0.83c-1.299,-1.484 -2.489,-3.691 -4.31,-4.61c1.871,0.674 3.426,2.481 5.235,3.169c-0.024,-0.88 -0.619,-1.713 -0.474,-2.627c0.406,-0.033 0.813,-0.073 1.158,0.168c0.315,-0.563 -0.013,-1.294 0.31,-1.845c0.367,-0.623 0.982,-0.302 1.435,-0.686c0.697,-0.589 0.077,-2.727 0.198,-3.637c0.92,-0.124 1.818,0.626 2.636,0.904c0.621,0.21 1.122,0.264 1.262,1.072c0.401,-0.147 0.908,-1.234 1.26,-1.65c0.262,1.035 -0.484,2.025 -0.331,2.99c0.698,-0.119 1.178,-1.076 1.664,-1.49c0.268,0.695 -0.453,1.767 -0.765,2.396c0.696,0.006 0.871,-0.621 1.323,-0.968c0.378,-0.291 0.983,-0.518 1.428,-0.737c-0.497,1.336 -1.8,2.066 -2.415,3.374c1.303,-0.192 2.467,-1.861 3.495,-2.633c0.885,-0.664 1.866,-1.002 2.813,-1.51c-0.288,1.121 -2.453,2.509 -3.403,3.26c-1.013,0.801 -2.232,1.668 -3.06,2.73c-1.403,1.796 1.977,0.117 2.641,-0.25c1.234,-0.682 2.632,-1.977 3.98,-2.054c-0.815,1.232 -2.586,2.116 -3.729,3.057c-0.493,0.407 -1.358,0.889 -1.569,1.48c1.542,0.53 3.686,0.007 5.318,0.096c1.522,0.083 3.095,0.567 4.479,1.089c-2.643,-0.02 -4.479,0.54 -6.551,1.937c1.067,0.385 2.765,-0.411 3.905,-0.458c-0.36,-0.116 -2.881,0.048 -2.505,0.789c0.054,0.106 2.566,0.802 1.351,1.247c-0.093,0.547 1.055,1.124 1.43,1.546c0.358,0.404 0.514,1.053 0.96,1.354c0.547,0.368 1.366,-0.093 1.94,0.228c0.504,0.281 0.611,1.256 0.581,1.772c-0.058,0.977 -1.495,2.062 -2.19,2.812c-0.819,0.884 -2.088,1.626 -3.233,1.85c-1.649,0.323 -3.531,0.003 -5.246,0.088c-1.41,0.071 -2.807,0.167 -4.25,0.167c-1.737,0 -3.436,-0.186 -5.152,-0.353c-1.475,-0.143 -2.997,-0.748 -4.516,-0.895c-0.631,-0.062 -1.282,-0.07 -1.851,-0.317c-0.585,-0.255 -1.107,-0.908 -1.731,-1.019" style="fill:#002800;fill-rule:nonzero;"/><path d="M876.548,50.435l3.116,24.837l1.705,-0.965l-4.821,-23.872Z" style="fill:#737346;fill-rule:nonzero;"/><path d="M874.929,52.457c-1.997,0.142 -4.11,0.218 -6.066,0.228c0.932,-1.058 2.5,-1.731 3.839,-1.825c-1.278,-0.463 -2.456,-0.723 -3.463,-1.711c1.533,0.492 3.078,0.945 4.618,1.413c-0.977,-0.406 -1.281,-1.75 -1.573,-2.675c-0.143,-0.454 -0.413,-1.01 -0.261,-1.46c0.826,1.321 1.376,3.52 2.808,4.366c-0.537,-1.685 -1.197,-4.651 0.526,-5.949c-0.364,1.18 -0.12,2.24 0.168,3.42c0.14,0.573 0.233,1.325 0.597,1.793c0.363,-1.315 0.211,-2.85 1.168,-3.891c0.615,-0.666 1.557,-1.57 2.365,-1.904c-0.536,1.673 -1.379,3.243 -1.769,4.974c0.947,-0.801 1.89,-2.392 3.291,-2.512c-0.742,0.951 -1.424,2.076 -2.201,2.973c1.709,-0.325 3.177,-2.091 5.057,-0.974c-0.402,0.529 -1.542,0.839 -2.157,1.145c-0.616,0.307 -1.234,0.636 -1.859,0.911c1.49,-0.019 2.777,-0.507 4.229,0.019c-0.184,0.548 -2.131,0.625 -2.659,0.764c-0.621,0.166 -1.295,0.224 -1.868,0.466c1.004,0.224 2.08,0.015 3.099,0.234c0.584,0.127 2.001,0.521 2.059,1.19c-1.009,0.076 -2.082,-0.24 -3.104,-0.296c-0.713,-0.038 -1.76,-0.086 -2.36,-0.248c1.871,0.743 3.716,0.625 4.75,2.644c0.408,0.791 0.859,1.887 0.998,2.755c-0.511,-0.033 -0.987,-0.855 -1.325,-1.194c-0.489,-0.49 -1.05,-0.912 -1.629,-1.313c-1.025,-0.712 -2.122,-1.185 -3.219,-1.714c0.915,0.306 1.987,1.801 1.777,2.801c-0.431,-1.181 -1.162,-2.157 -2.136,-2.823c-0.063,1.02 0.475,2.166 0.441,3.248c-0.028,0.847 -0.375,1.623 -0.787,2.359c0.335,-0.909 0.081,-2.334 0.017,-3.306c-0.035,-0.548 -0.071,-1.157 -0.284,-1.661c-0.898,1.529 -0.496,4.074 -2.546,4.741c0.793,-1.173 1.079,-2.868 1.496,-4.241c-0.675,2.087 -2.753,3.601 -4.495,4.717c0.433,-1.9 1.513,-4.097 3.124,-5.149c-1.411,0.11 -2.919,1.449 -4.033,2.247c-0.546,0.392 -1.085,0.759 -1.574,1.182c0.811,-1.747 2.757,-3.357 4.494,-4.071c-0.591,-0.25 -2.127,0.264 -2.838,0.41c-0.949,0.195 -1.942,0.419 -2.822,0.618c1.084,-0.451 2.026,-1.281 3.178,-1.716c0.782,-0.295 2.068,-0.868 2.909,-0.741c0.017,-0.084 0.052,-0.067 0.103,-0.089" style="fill:#002800;fill-rule:nonzero;"/><path d="M1072.53,51.994c1.169,0.62 2.472,0.886 3.738,1.227c1.052,0.283 2.41,0.557 3.051,1.532c1.3,1.977 -2.137,3.273 -3.604,2.72c0.437,-0.435 1.146,-0.516 1.711,-0.709c0.748,-0.257 1.574,-0.549 2.375,-0.516c-1.084,0.212 -2.27,0.376 -3.379,0.443c-0.891,0.053 -2.09,0.331 -2.963,0.073c1.059,-0.193 2.119,-0.526 3.19,-0.733c1.282,-0.249 2.66,-0.734 3.947,-0.847c-0.421,0.159 -0.868,0.129 -1.308,0.186c-1.222,0.159 -2.448,0.413 -3.661,0.63c-0.936,0.167 -3.024,0.753 -3.953,0.25c-0.914,-0.494 1.546,-1.197 1.96,-1.326c1.24,-0.388 2.534,-0.66 3.807,-0.927c0.558,-0.117 1.21,-0.357 1.782,-0.295c-2.133,0.61 -5.299,1.027 -7.514,0.428c0.183,-0.722 3.029,-0.809 3.661,-0.894c1.571,-0.211 3.198,-0.622 4.783,-0.615c-0.757,0.217 -8.288,1.485 -8.284,0.566c0.004,-0.623 3.932,-0.95 4.348,-1.001c1.399,-0.173 2.78,-0.311 4.189,-0.311c-1.004,0 -7.919,0.185 -7.716,-1.251c0.164,-1.166 5.508,-0.508 6.421,-0.37c-2.344,-1.002 -5.308,-2.919 -5.302,-5.795c1.225,0.661 2.437,2.882 2.369,4.289c-0.684,-0.733 -0.717,-2.197 -0.863,-3.187c-0.183,-1.255 -0.588,-2.987 -0.176,-4.247c1.12,-0.227 2.169,1.56 2.642,2.29c1.189,1.838 1.494,3.916 1.536,6.063c-0.548,-0.94 -0.265,-2.808 -0.253,-3.836c0.02,-1.691 -0.088,-3.902 0.561,-5.469c0.771,0.683 0.86,2.769 0.944,3.725c0.11,1.268 -0.097,2.535 -0.192,3.772c-0.055,-0.362 -0.064,-0.719 -0.063,-1.094c0.002,-0.791 -0.031,-1.583 0.051,-2.37c0.176,-1.689 0.151,-3.845 0.81,-5.409c1.31,1.962 1.266,4.964 1.264,7.233c0.005,-0.904 0.095,-1.788 0.247,-2.675c0.274,-1.598 0.896,-3.112 1.206,-4.667c1.153,0.849 0.981,2.892 0.985,4.152c0.004,1.508 -0.532,3.083 -0.438,4.565c-0.071,-0.813 0.09,-1.79 0.261,-2.572c0.23,-1.052 0.501,-2.111 0.817,-3.149c0.203,-0.667 0.326,-1.728 0.735,-2.283c1.041,0.766 0.441,3.449 0.314,4.498c-0.123,1.012 -0.307,2.113 -0.639,3.066c-0.195,0.556 -0.466,1.13 -0.553,1.706c0.276,-0.671 0.633,-1.336 0.995,-1.996c1.228,-2.237 2.526,-4.694 4.011,-6.76c-0.01,1.202 -0.261,2.16 -0.723,3.287c-0.401,0.981 -0.85,1.963 -1.34,2.903c-0.635,1.219 -1.591,2.631 -1.813,4.006c0.286,-0.224 0.479,-0.717 0.742,-1.063c0.644,-0.851 1.396,-1.591 2.101,-2.396c0.899,-1.024 1.803,-2.051 2.748,-3.03c0.279,-0.288 0.755,-0.924 1.144,-0.991c0.795,1.213 -0.558,2.987 -1.321,3.783c-0.832,0.87 -1.687,1.703 -2.625,2.448c-0.448,0.355 -0.874,0.768 -1.471,0.752c0.047,-0.76 2.367,-2.008 2.932,-2.385c0.694,-0.463 3.1,-2.304 4.108,-1.716c1.114,0.649 -1.273,1.875 -1.702,2.136c-1.663,1.015 -3.526,2.201 -5.394,2.791c2.335,-0.405 4.629,-1.582 7.042,-1.431c-0.375,0.389 -1.592,0.435 -2.143,0.578c-1.267,0.329 -2.52,0.71 -3.794,1.002c-1.512,0.346 -3.725,1.295 -5.287,0.861c1.421,-0.117 12.175,0.347 11.547,1.911c-0.221,0.549 -3.81,0.039 -4.282,-0.033c-1.558,-0.24 -3.091,-0.66 -4.593,-0.977c0.325,0.238 0.841,0.298 1.239,0.397c1.735,0.435 3.524,0.62 5.274,0.987c0.602,0.125 5.641,0.913 5.535,1.942c-1.254,0.356 -2.851,-0.078 -4.128,-0.179c-1.196,-0.094 -2.401,-0.319 -3.583,-0.542c-1.143,-0.215 -2.333,-0.71 -3.451,-0.834c1.56,0.265 4.091,0.933 5.17,2.18c-1.089,0.024 -2.46,-0.444 -3.526,-0.706c-1.466,-0.361 -2.869,-0.724 -4.388,-0.651c-0.415,1.562 6.542,1.679 7.357,1.741c0.561,0.042 3.195,-0.062 3.487,0.557c0.429,0.908 -2.816,1.179 -3.219,1.26c0.693,0.13 1.453,0.18 2.149,0.308c-1.531,-0.095 -3.075,-0.426 -4.636,-0.486c-2.162,-0.083 -4.497,0.019 -6.577,-0.63c0.91,0.58 2.643,0.724 3.718,0.872c1.67,0.231 3.427,0.326 5.119,0.235c0.012,-0.502 -0.929,-0.797 -1.331,-0.915c-2.899,-0.848 -6.259,-0.764 -9.254,-0.764c2.346,0 4.767,0.18 7.14,0.299c0.454,0.023 4.172,0.323 4.279,-0.299c0.212,-1.243 -5.254,-0.862 -5.886,-1.5c0.27,-0.289 1.082,-0.275 1.489,-0.312c1.171,-0.109 2.366,-0.234 3.544,-0.252c0.969,-0.014 1.949,-0.018 2.906,-0.125c0.518,-0.057 0.948,-0.089 0.377,-0.515c-0.729,-0.545 -2.531,-0.252 -3.381,-0.171c-1.024,0.099 -2.006,0.188 -3.037,0.188c-0.438,0 -1.156,0.105 -1.524,-0.063c1.261,-0.495 9.232,-1.127 9.076,-2.066c-0.283,-1.701 -7.84,1.347 -8.892,0.879c1.168,-0.906 2.893,-1.284 4.326,-1.756c0.877,-0.29 2.807,-0.559 2.614,-1.797c-1.365,-0.194 -3.018,0.667 -4.252,1.134c-1.22,0.463 -2.752,1.517 -4.048,1.594c0.301,-0.402 0.991,-0.746 1.418,-1.035c0.601,-0.406 1.239,-0.757 1.867,-1.119c0.842,-0.485 1.696,-0.926 2.563,-1.36c0.743,-0.372 1.944,-0.723 2.526,-1.343c-1.756,0.471 -3.445,1.208 -5.124,2.042c-2.259,1.121 -5.171,2.153 -6.983,3.946c2.034,-1.285 4.209,-2.5 6.318,-3.72c1.932,-1.118 3.902,-1.988 6.031,-2.65c0.865,-0.269 1.965,-0.769 2.895,-0.686c-1.829,0 -4.052,-0.059 -5.932,0.452c-2.113,0.574 -4.148,1.896 -6.023,3.003c-1.559,0.919 -3.378,1.692 -4.744,2.901c3.177,-3.342 7.555,-5.777 12.096,-6.781c-4.294,-0.31 -9.543,2.094 -12.075,5.501c0.43,-0.283 0.727,-0.723 1.102,-1.08c0.888,-0.844 1.927,-1.529 2.901,-2.273c1.132,-0.863 2.961,-2.863 4.531,-2.799c-0.463,-0.157 -1.186,-0.059 -1.672,0.094c-0.664,0.211 -1.297,0.668 -1.906,1.046c-1.756,1.092 -3.626,2.23 -4.942,3.842c1.751,-2.729 4.411,-4.776 6.319,-7.383c-1.071,-0.262 -2.239,1.551 -2.85,2.191c-0.832,0.871 -1.705,1.71 -2.515,2.595c-0.424,0.463 -1.394,1.142 -1.492,1.798c-0.075,-1.212 1.747,-3 2.427,-3.832c0.808,-0.989 1.64,-1.945 2.454,-2.931c0.388,-0.471 0.897,-1.096 0.987,-1.71c-1.135,-0.079 -2.279,1.731 -2.901,2.464c-0.863,1.021 -2.605,2.95 -2.406,4.431c0.215,-0.68 0.556,-1.322 0.907,-1.95c0.369,-0.658 0.757,-1.296 1.109,-1.961c0.484,-0.915 1.435,-2.138 1.504,-3.151c-3.045,0.691 -4.456,4.384 -4.455,7.25c0,-2.21 -0.06,-4.382 -0.435,-6.573c-0.058,2.307 -0.44,4.575 -0.44,6.899c0.046,-0.555 -0.233,-1.143 -0.315,-1.682c-0.284,-1.891 -0.602,-3.844 -0.818,-5.761c0.236,0.801 -0.117,1.871 -0.117,2.701l0,1.819c0,1.116 0.442,2.342 0.299,3.424c-0.405,-1.397 -0.806,-2.811 -1.258,-4.222c-0.366,-1.144 -0.604,-2.317 -0.916,-3.48c-0.158,-0.586 -0.504,-1.61 -0.464,-2.102c0.583,1.401 0.741,3.186 1.184,4.663c0.33,1.099 0.634,2.202 0.948,3.299c0.158,0.555 0.445,1.174 0.443,1.732c-0.486,-0.555 -0.898,-1.485 -1.311,-2.163c-0.521,-0.852 -1.421,-2.809 -2.419,-3.135c0.819,0.82 1.54,1.854 2.322,2.744c0.528,0.601 1.7,1.561 1.739,2.41c-0.459,-0.268 -0.837,-0.752 -1.268,-1.089c-0.441,-0.344 -0.94,-0.629 -1.403,-0.963c-0.74,-0.535 -2.006,-1.729 -2.936,-1.743c0.331,0.627 1.081,1.194 1.646,1.674c1.001,0.848 2.023,1.741 3.012,2.555c-1.9,-0.944 -3.9,-1.809 -5.791,-2.927c2.121,1.663 4.966,2.487 7.2,4.07c-2.141,-0.868 -4.53,-1.737 -6.781,-2.518c1.772,1.202 4.256,1.374 5.923,2.719c-0.598,-0.129 -1.192,-0.337 -1.824,-0.457c-1.607,-0.305 -3.391,0.027 -4.97,-0.527c1.858,1.077 4.463,0.846 6.348,2.037c-1.606,-0.983 -3.917,-0.663 -5.7,-1.302c2.168,0.728 4.441,1.772 6.674,2.31c-0.59,-0.174 -1.224,-0.267 -1.835,-0.378c-1.349,-0.245 -2.755,-0.04 -4.084,-0.382" style="fill:#002800;fill-rule:nonzero;"/><path d="M1230.44,62.058c0,-2.229 0.468,-3.991 1.37,-5.975c0.537,-1.186 1.389,-3.05 2.605,-3.655c0.008,-0.027 -0.003,-0.043 0.008,-0.07c-0.595,0.033 -1.51,1.226 -1.891,1.602c-0.539,0.533 -0.97,1.164 -1.363,1.861c-0.851,1.513 -1.405,3.233 -1.678,4.953c-0.063,0.393 -0.171,0.811 -0.158,1.225c-0.216,-0.816 0.102,-1.693 0.108,-2.496c0.008,-0.819 0.098,-1.614 0.098,-2.445c0,-1.855 -0.263,-3.416 -0.869,-5.137c-0.293,-0.835 -0.646,-1.587 -0.957,-2.408c-0.045,0.868 0.366,1.794 0.457,2.656c0.044,0.423 0.134,0.882 0.193,1.316c0.146,1.067 0.365,2.097 0.365,3.192c0,1.909 0.022,3.925 0.022,5.761l0,-0.125" style="fill:#312210;fill-rule:nonzero;"/><path d="M1224.04,51.055c0.314,0.044 0.623,0.118 0.945,0.118l0.966,0.037c0.318,0.034 0.647,0.045 0.962,0.12l0.951,0.189l-0.04,0.15l-2.181,-0.687l-2.138,-0.774l0.072,-0.207c0.293,0.092 0.593,0.159 0.902,0.205l0.938,0.11c0.316,0.036 0.633,0.085 0.95,0.155c0.318,0.077 0.625,0.195 0.919,0.356l-0.144,0.232l-0.461,-0.236l-0.495,-0.174c-0.339,-0.092 -0.686,-0.172 -1.039,-0.238c-0.353,-0.067 -0.709,-0.142 -1.065,-0.231c-0.357,-0.095 -0.706,-0.229 -1.044,-0.405l-0.914,-0.477l1.054,0.174c0.35,0.059 0.679,0.185 1.049,0.18c0.357,0.026 0.731,0.037 1.112,0.044c0.191,-0.002 0.374,0.021 0.558,0.039l0.276,0.028c0.081,0.008 0.201,0.017 0.288,0.043l1.083,0.264l-0.167,0.349l-0.413,-0.278l-0.451,-0.226c-0.315,-0.131 -0.639,-0.252 -0.97,-0.362c-0.334,-0.109 -0.669,-0.227 -1.006,-0.354c-0.337,-0.135 -0.665,-0.299 -0.981,-0.498l-1.805,-1.141l2.007,0.737l4.389,1.611l-0.233,0.427l-1.118,-0.67l-1.189,-0.587l-1.203,-0.611l-1.155,-0.747l0.299,-0.438l1.835,0.96l1.889,0.904l-0.305,0.468l-1.556,-1.31l-0.783,-0.659c-0.134,-0.111 -0.266,-0.232 -0.393,-0.37c-0.133,-0.119 -0.24,-0.305 -0.353,-0.464l-0.344,-0.482l0.609,0.046c0.512,0.039 0.841,0.28 1.165,0.488c0.321,0.224 0.593,0.455 0.886,0.671l0.909,0.621c0.157,0.131 0.292,0.26 0.438,0.391l0.373,0.302l-0.473,0.285c-0.022,-0.053 -0.009,-0.097 -0.044,-0.159c-0.031,-0.059 -0.048,-0.119 -0.097,-0.183c-0.077,-0.126 -0.183,-0.252 -0.295,-0.376c-0.22,-0.249 -0.501,-0.494 -0.732,-0.783l-0.688,-0.827l-0.685,-0.776l-1.047,-1.188l1.383,0.641c0.109,0.05 0.218,0.106 0.322,0.165l0.241,0.208c0.138,0.145 0.271,0.294 0.374,0.448c0.223,0.305 0.399,0.624 0.573,0.927l0.52,0.919c0.174,0.334 0.356,0.55 0.526,0.834l-0.606,0.226c-0.015,-0.191 -0.073,-0.411 -0.171,-0.679c-0.089,-0.254 -0.171,-0.528 -0.247,-0.781l-0.464,-1.554c-0.143,-0.521 -0.266,-1.063 -0.399,-1.595l-0.437,-1.497l0.711,-0.112c0.043,0.231 0.03,0.419 0.093,0.685l0.092,0.391c0.033,0.133 0.052,0.237 0.08,0.382c0.1,0.534 0.202,1.065 0.321,1.586l0.332,1.601l0.291,1.536l-0.771,0.058c-0.018,-0.069 0.011,-0.117 -0.021,-0.202c-0.024,-0.079 -0.039,-0.158 -0.087,-0.25c-0.07,-0.177 -0.186,-0.368 -0.293,-0.574c-0.055,-0.097 -0.11,-0.212 -0.163,-0.324c-0.054,-0.096 -0.157,-0.27 -0.201,-0.413c-0.042,-0.169 -0.109,-0.183 -0.109,-0.404l0,-0.339l0.045,-0.679c-0.008,-0.088 0.03,-0.265 0.07,-0.448c0.048,-0.138 0.115,-0.288 0.176,-0.39c0.121,-0.233 0.245,-0.41 0.342,-0.591c0.029,-0.078 0.095,-0.176 0.095,-0.228c0.029,-0.073 0.004,-0.088 0.02,-0.11l0.813,-0.164c0.104,0.375 0.13,0.739 0.29,1.123l0.427,1.184c0.17,0.417 0.25,0.815 0.356,1.218l0.073,0.311c0.014,0.076 0.047,0.187 0.074,0.285c0.058,0.205 0.112,0.464 0.104,0.759l-0.867,-0.035l0.121,-2.264l0.146,-2.195l0.897,-0.065l0.244,1.945l0.058,1.932l-0.935,0l0.047,-0.573l0.136,-0.668l0.226,-0.705l0.323,-0.705c0.135,-0.232 0.287,-0.445 0.433,-0.674c0.175,-0.212 0.372,-0.404 0.561,-0.607c0.223,-0.172 0.462,-0.326 0.697,-0.485l0.808,-0.3l0.788,-0.294l-0.191,0.806c-0.061,0.255 -0.105,0.561 -0.211,0.77c-0.103,0.205 -0.203,0.449 -0.314,0.619l-0.636,1.099l-0.626,1.114c-0.208,0.361 -0.36,0.718 -0.495,1.069l-0.914,2.364l-0.056,-2.448c-0.004,-0.168 -0.001,-0.339 0.008,-0.508l0.116,-0.442c0.105,-0.268 0.223,-0.526 0.365,-0.749c0.278,-0.458 0.597,-0.862 0.919,-1.24c0.333,-0.372 0.572,-0.726 0.934,-1.142c0.177,-0.198 0.357,-0.399 0.611,-0.578c0.111,-0.094 0.262,-0.174 0.426,-0.242c0.139,-0.085 0.383,-0.088 0.571,-0.106l0.639,-0.06l-0.183,0.628c-0.052,0.182 -0.098,0.408 -0.189,0.543c-0.08,0.159 -0.168,0.302 -0.265,0.427c-0.097,0.142 -0.18,0.236 -0.27,0.349l-0.274,0.328l-1.081,1.289l-0.555,0.652c-0.185,0.212 -0.366,0.414 -0.528,0.623c-0.164,0.206 -0.322,0.419 -0.431,0.625c-0.07,0.106 -0.102,0.203 -0.138,0.297c-0.058,0.107 -0.017,0.15 -0.051,0.226l-0.977,-0.042c0.112,-0.501 0.368,-0.705 0.562,-0.922l0.301,-0.283c0.074,-0.066 0.176,-0.164 0.254,-0.246l1.091,-1.125l0.542,-0.563l0.499,-0.587c0.184,-0.209 0.381,-0.42 0.643,-0.614c0.14,-0.094 0.268,-0.193 0.473,-0.255c0.168,-0.086 0.429,-0.077 0.658,-0.052l0.835,0.092l-0.557,0.672l-1.032,1.247l-1.084,1.15l-1.04,1.136l-0.903,1.2l-0.785,-0.57l0.607,-0.634c0.197,-0.222 0.438,-0.372 0.655,-0.561c0.22,-0.187 0.45,-0.352 0.685,-0.505c0.232,-0.156 0.467,-0.325 0.697,-0.464l0.7,-0.44c0.251,-0.148 0.511,-0.335 0.757,-0.447l0.37,-0.175l0.093,-0.044l0.022,-0.011l0.066,-0.025l0.016,-0.004l0.058,-0.015l0.238,-0.059c0.163,-0.02 0.317,-0.055 0.495,-0.048c0.161,-0.014 0.368,0.023 0.564,0.071l1.857,0.447l-2.031,0.492c-0.094,0.022 -0.18,0.017 -0.28,0.041c-0.104,0.044 -0.207,0.068 -0.315,0.121c-0.216,0.11 -0.432,0.25 -0.648,0.408c-0.213,0.166 -0.427,0.338 -0.64,0.524c-0.216,0.184 -0.45,0.39 -0.669,0.563l-0.685,0.511c-0.228,0.161 -0.449,0.34 -0.669,0.526l-0.33,0.274l-0.166,0.136l-0.041,0.035c0.002,-0.003 -0.035,0.029 0,-0.002l-0.018,0.019l-0.068,0.073c-0.099,0.103 -0.165,0.186 -0.291,0.304l-0.399,0.351l-0.648,-0.685c0.261,-0.296 0.513,-0.603 0.784,-0.886c0.296,-0.254 0.584,-0.52 0.89,-0.76c0.321,-0.215 0.638,-0.439 0.967,-0.645l1.027,-0.535l1.078,-0.422l1.121,-0.305c0.383,-0.067 0.771,-0.114 1.156,-0.17c0.392,-0.017 0.788,-0.009 1.181,-0.012l3.245,-0.021l-3.177,0.958l-2.101,0.633l-1.99,0.932l-1.836,1.206l-1.633,1.461l-0.652,-0.675l0.629,-0.479c0.208,-0.165 0.434,-0.273 0.651,-0.412c0.438,-0.274 0.866,-0.475 1.297,-0.722c0.434,-0.235 0.839,-0.475 1.267,-0.733c0.425,-0.249 0.857,-0.499 1.306,-0.738l0.708,-0.343c0.238,-0.127 0.467,-0.19 0.699,-0.276c0.253,-0.077 0.415,-0.175 0.742,-0.235l0.771,-0.15c0.508,-0.051 1.021,-0.111 1.519,-0.111c0.505,-0.016 0.996,-0.011 1.488,-0.011l-0.041,0.925c-0.175,0.024 -0.331,-0.004 -0.536,0.063c-0.189,0.036 -0.4,0.106 -0.611,0.178c-0.432,0.138 -0.86,0.3 -1.262,0.451l-1.231,0.461l-1.216,0.617l-0.608,0.309l-0.565,0.33l-1.172,0.689l-2.342,1.377l-0.567,-0.713l0.922,-0.729c0.149,-0.133 0.321,-0.207 0.485,-0.306l0.494,-0.279c0.329,-0.198 0.662,-0.344 0.994,-0.502l0.995,-0.468l2.005,-0.923c0.33,-0.167 0.69,-0.282 1.047,-0.402l1.07,-0.364l2.438,-0.829l-1.991,1.577l-0.391,0.311c-0.132,0.091 -0.258,0.142 -0.388,0.213c-0.261,0.136 -0.485,0.212 -0.729,0.326l-0.178,0.079c-0.019,0.008 -0.085,0.039 -0.064,0.028l-0.087,0.046l-0.345,0.183l-0.693,0.367l-0.345,0.183l-0.173,0.092l-0.143,0.086l-0.672,0.402l-0.668,0.41c-0.108,0.065 -0.213,0.132 -0.295,0.195c-0.106,0.066 -0.131,0.12 -0.197,0.17l-0.388,-0.718c0.191,-0.052 0.375,-0.079 0.572,-0.132l0.611,-0.255l0.651,-0.318l0.668,-0.295c0.422,-0.161 0.866,-0.361 1.342,-0.52c0.24,-0.078 0.489,-0.145 0.752,-0.193c0.267,-0.044 0.549,-0.055 0.842,-0.023l0.373,0.04l-0.008,0.32c-0.005,0.179 0.016,0.377 -0.065,0.543c-0.078,0.176 -0.181,0.333 -0.305,0.422c-0.242,0.221 -0.484,0.304 -0.715,0.396c-0.231,0.083 -0.452,0.141 -0.652,0.195l-0.624,0.187c-0.428,0.134 -0.836,0.249 -1.226,0.4c-0.185,0.081 -0.388,0.146 -0.562,0.239l-0.498,0.3l-0.085,-0.702c-0.061,-0.016 0.076,0.008 0.17,-0.01c0.103,-0.008 0.22,-0.027 0.336,-0.047c0.233,-0.042 0.474,-0.097 0.714,-0.153l1.465,-0.359c0.494,-0.117 0.993,-0.229 1.518,-0.301c0.265,-0.034 0.533,-0.061 0.835,-0.041c0.156,0.019 0.313,0.028 0.514,0.131c0.098,0.058 0.199,0.107 0.306,0.284c0.058,0.101 0.054,0.116 0.066,0.145l0.006,0.023l0.003,0.011l0.017,0.069l0.002,0.026c0.005,0.071 -0.004,0.147 -0.025,0.214c-0.091,0.215 -0.216,0.282 -0.289,0.332c-0.086,0.055 -0.153,0.081 -0.227,0.115c-0.138,0.055 -0.271,0.099 -0.4,0.134c-0.259,0.073 -0.511,0.127 -0.764,0.178c-0.504,0.099 -1.005,0.178 -1.505,0.253l-1.493,0.218l-0.736,0.115c-0.234,0.041 -0.502,0.09 -0.664,0.147l0.018,-0.676c0.076,0.019 0.29,0.038 0.523,0.021l0.683,-0.034l1.38,-0.08c0.236,-0.009 0.418,-0.038 0.67,-0.061c0.236,-0.022 0.475,-0.041 0.723,-0.041c0.265,0.011 0.47,-0.007 0.816,0.101c0.203,0.062 0.191,0.072 0.396,0.191c0.067,0.064 0.104,0.067 0.197,0.192l0.053,0.08c0.031,0.065 0.049,0.158 0.042,0.238c0.012,0.148 -0.207,0.341 -0.233,0.328c-0.253,0.104 -0.341,0.08 -0.462,0.102l-0.363,0.017l-0.692,0.027c-0.458,0.018 -0.924,0.033 -1.383,0.07l-1.38,0.092l-0.683,0.046c-0.212,0 -0.429,0.078 -0.442,0.075l-0.007,-0.454c-0.013,-0.021 0.073,0.031 0.172,0.049c0.102,0.023 0.209,0.043 0.324,0.057c0.225,0.032 0.463,0.054 0.699,0.077c0.477,0.045 0.959,0.08 1.455,0.163c0.248,0.044 0.5,0.094 0.774,0.211c0.073,0.039 0.148,0.088 0.219,0.136c0.089,0.062 0.21,0.272 0.217,0.348l0.236,0.089l0.228,0.023l0,0.005c0,-0.08 -0.228,0.111 -0.229,0.096l-0.115,0.009l-0.069,0.037c-0.019,0.048 -0.072,0.098 -0.104,0.141c-0.108,0.127 -0.233,0.166 -0.303,0.191c-0.311,0.099 -0.557,0.101 -0.812,0.117c-0.251,0.012 -0.437,0.008 -0.681,0.002l-5.687,-0.268l0,-0.572c0,0.006 1.121,-0.003 1.719,0.015c0.599,0.025 1.158,0.014 1.769,0.092l0.893,0.091c0.298,0.044 0.574,0.119 0.865,0.177l0.43,0.094l0.216,0.047l0.241,0.075c0.151,0.055 0.301,0.112 0.457,0.212c0.137,0.098 0.361,0.449 0.375,0.789l0.011,0.474l-0.261,0l-1.48,-0.219c-0.249,0.009 -0.484,-0.141 -0.725,-0.159l-0.72,-0.123l-0.36,-0.062l-0.369,-0.06l-0.723,-0.113c-0.242,-0.029 -0.489,-0.107 -0.734,-0.164c-0.245,-0.048 -0.493,-0.199 -0.735,-0.3l0.208,-0.449l0.856,0.195c0.286,0.065 0.588,0.069 0.881,0.108c0.292,0.039 0.596,0.041 0.897,0.054l0.906,0.031c0.302,0.012 0.608,0.004 0.914,0.046l0.918,0.092l1.797,0.201l-0.056,0.457l-1.384,-0.202l-1.552,-0.226l1.549,-0.22l0.621,-0.088c0.199,-0.031 0.396,-0.065 0.59,-0.109c0.189,-0.045 0.381,-0.098 0.538,-0.173c0.072,-0.034 0.151,-0.085 0.162,-0.11c0.025,-0.036 -0.016,0.034 0.017,0.036l-0.018,-0.075l-0.005,-0.214c0.03,0.084 0.007,-0.154 0.013,-0.154l-0.003,0c-0.024,0 -0.253,0.078 -0.427,0.053c-0.188,-0.033 -0.388,0.047 -0.588,0.035c-0.395,-0.026 -0.82,0.035 -1.23,0.005c-0.822,-0.038 -1.651,-0.062 -2.476,-0.169c-0.413,-0.056 -0.826,-0.111 -1.239,-0.223c-0.206,-0.06 -0.413,-0.121 -0.619,-0.234c-0.103,-0.061 -0.209,-0.121 -0.301,-0.242c-0.094,-0.111 -0.148,-0.304 -0.102,-0.462l0.045,-0.153l0.141,0.004l0.673,0.014c0.222,0.012 0.44,0.053 0.661,0.079c0.436,0.072 0.868,0.17 1.285,0.274l1.258,0.328c0.208,0.059 0.413,0.089 0.62,0.135c0.206,0.038 0.407,0.036 0.611,0.058l-0.138,0.312c-0.194,-0.2 -0.418,-0.377 -0.673,-0.523c-0.256,-0.143 -0.528,-0.262 -0.806,-0.371c-0.561,-0.206 -1.15,-0.353 -1.743,-0.458l0.05,-0.355c0.606,0.135 1.216,0.267 1.798,0.429l0.441,0.116l0.434,0.067l1.804,0.278l0.907,0.115c0.299,0.046 0.597,0.08 0.89,0.087c0.301,0.043 0.572,-0.043 0.859,-0.066l-0.117,0.138c0.024,-0.028 -0.106,-0.153 -0.232,-0.223c-0.134,-0.078 -0.285,-0.143 -0.44,-0.201c-0.31,-0.118 -0.637,-0.207 -0.964,-0.29c-0.659,-0.166 -1.322,-0.284 -2.002,-0.41c-0.673,-0.121 -1.349,-0.224 -2.019,-0.361l-1.006,-0.195c-0.341,-0.083 -0.668,-0.093 -1.041,-0.316l-0.815,-0.489l0.941,0.197l1.668,0.349c0.555,0.103 1.117,0.261 1.664,0.321c0.559,0.067 1.124,0.127 1.674,0.123c0.137,-0.002 0.273,-0.011 0.394,-0.032l0.083,-0.019c0.016,-0.007 0.002,-0.001 0.015,0.011c-0.002,0.018 0.086,-0.105 0.025,-0.014c-0.006,-0.006 0.01,-0.013 0,-0.017c-0.01,-0.079 -0.325,-0.243 -0.565,-0.307c-1.056,-0.304 -2.201,-0.407 -3.321,-0.507c-0.564,-0.045 -1.129,-0.08 -1.694,-0.104c-0.56,-0.02 -1.142,-0.044 -1.678,-0.018l0.039,-0.407c0.271,0.055 0.556,0.075 0.851,0.04c0.293,-0.031 0.589,-0.094 0.884,-0.169c0.586,-0.154 1.197,-0.352 1.8,-0.501l1.804,-0.483c0.285,-0.082 0.623,-0.164 0.93,-0.202c0.151,-0.025 0.298,-0.051 0.435,-0.086c0.133,-0.033 0.262,-0.091 0.31,-0.133l0.152,0.392l-1.108,0.069l-1.106,0.258l-1.114,0.329l-1.155,0.279l-0.117,-0.479c0.429,-0.176 0.869,-0.317 1.281,-0.55c0.422,-0.201 0.826,-0.447 1.234,-0.685l1.228,-0.742c0.198,-0.119 0.391,-0.245 0.558,-0.381c0.166,-0.115 0.304,-0.349 0.269,-0.311c-0.014,-0.005 0.049,0.05 -0.003,-0.002l-0.072,-0.054c0.038,0.026 -0.013,0.001 -0.015,0.002c-0.049,-0.025 -0.136,-0.025 -0.225,-0.018c-0.185,0.022 -0.394,0.101 -0.595,0.195c-0.407,0.19 -0.797,0.449 -1.185,0.717c-0.384,0.286 -0.832,0.527 -1.207,0.782c-0.193,0.128 -0.384,0.262 -0.549,0.404c-0.169,0.125 -0.314,0.333 -0.325,0.363l-0.275,-0.302c0.082,-0.029 0.163,-0.004 0.25,-0.064c0.084,-0.031 0.176,-0.099 0.267,-0.166c0.087,-0.067 0.217,-0.169 0.278,-0.229l0.282,-0.264l1.123,-1.054c0.085,-0.082 0.208,-0.189 0.26,-0.251c0.082,-0.09 0.163,-0.179 0.236,-0.276c0.152,-0.188 0.291,-0.388 0.398,-0.594c0.115,-0.203 0.196,-0.42 0.224,-0.621c0.037,-0.106 -0.005,-0.19 0.002,-0.286c-0.012,-0.091 -0.07,-0.159 -0.09,-0.245l0.306,0.133c-0.021,0.022 -0.039,0.034 -0.067,0.039l-0.119,0.104c-0.083,0.07 -0.174,0.182 -0.263,0.276l-0.544,0.605l-1.09,1.209l-1.063,1.21l-0.524,0.605l-0.198,0.32c-0.097,0.136 -0.213,0.279 -0.327,0.409l-0.949,1.09l0.431,-1.397c0.094,-0.304 0.144,-0.642 0.283,-0.916c0.126,-0.284 0.251,-0.57 0.398,-0.825l0.425,-0.782c0.076,-0.132 0.119,-0.229 0.187,-0.38l0.184,-0.402l0.369,-0.806l0.186,-0.402l0.127,-0.387c0.068,-0.269 0.214,-0.527 0.222,-0.804l0.092,-0.821l0.624,0.204c-0.554,0.919 -1.169,1.777 -1.676,2.743l-0.785,1.425c-0.249,0.467 -0.471,0.944 -0.709,1.415l-0.696,-0.192c0.075,-0.268 0.141,-0.587 0.237,-0.81c0.1,-0.245 0.172,-0.478 0.224,-0.711c0.054,-0.24 0.137,-0.453 0.17,-0.713l0.116,-0.765l0.109,-0.76c0.034,-0.249 0.058,-0.495 0.072,-0.736c0.009,-0.122 -0.001,-0.236 0.001,-0.354c0.007,-0.122 -0.025,-0.219 -0.035,-0.33c-0.004,-0.118 -0.059,-0.18 -0.081,-0.271c-0.028,-0.092 -0.09,-0.095 -0.115,-0.166l0.535,-0.081c-0.033,0.074 -0.068,0.144 -0.107,0.214c-0.034,0.081 -0.057,0.185 -0.088,0.277c-0.059,0.19 -0.101,0.43 -0.158,0.638l-0.329,1.287l-0.165,0.644l-0.079,0.307l-0.053,0.313c-0.025,0.206 -0.095,0.423 -0.083,0.619l-0.018,0.599l-0.792,0.061l0.017,-0.79l0.099,-0.743c0.075,-0.45 0.217,-0.91 0.234,-1.404l0.088,-0.343l0,-0.357c0,-0.232 -0.097,-0.459 -0.121,-0.677c-0.029,-0.215 -0.117,-0.417 -0.187,-0.594c-0.035,-0.089 -0.109,-0.152 -0.147,-0.233l-0.176,-0.17l0.648,-0.252c-0.206,0.786 -0.42,1.574 -0.608,2.355l-0.147,0.588l-0.019,0.073c0.006,-0.023 -0.003,0.035 -0.003,0.049l-0.012,0.144l-0.026,0.289l-0.104,1.156l-0.858,-0.002c-0.001,-0.801 -0.002,-1.586 -0.093,-2.346c-0.051,-0.378 -0.123,-0.747 -0.223,-1.102c-0.058,-0.172 -0.126,-0.338 -0.188,-0.508c-0.081,-0.157 -0.17,-0.306 -0.252,-0.461l0.777,-0.075l-0.183,0.624c-0.065,0.205 -0.073,0.446 -0.113,0.668c-0.076,0.445 -0.084,0.941 -0.135,1.413l-0.029,0.359c-0.008,0.114 -0.026,0.255 -0.026,0.346l-0.017,0.721l-0.017,0.722l0.033,0.631l-0.874,0.031l0.114,-1.199l0.014,-1.203c-0.033,-0.42 -0.063,-0.813 -0.128,-1.194c-0.036,-0.186 -0.078,-0.367 -0.134,-0.529c-0.056,-0.164 -0.135,-0.281 -0.195,-0.356l0.676,-0.156l-0.183,0.653c-0.042,0.104 -0.035,0.233 -0.054,0.348l-0.041,0.357c-0.037,0.233 -0.033,0.486 -0.043,0.732l-0.015,0.749c-0.004,0.255 0.001,0.498 -0.013,0.773l-0.041,0.754c-0.02,0.474 0.003,0.979 0.151,1.265l-0.76,0.214l-0.042,-0.78c-0.001,-0.264 -0.065,-0.51 -0.098,-0.764c-0.03,-0.259 -0.08,-0.505 -0.162,-0.728c-0.087,-0.233 -0.1,-0.459 -0.24,-0.701l-0.369,-0.717c-0.026,-0.052 -0.134,-0.215 -0.193,-0.307c-0.071,-0.11 -0.144,-0.213 -0.217,-0.314c-0.147,-0.204 -0.307,-0.386 -0.471,-0.525c-0.082,-0.055 -0.165,-0.129 -0.235,-0.14c-0.078,-0.052 -0.123,-0.013 -0.182,-0.037l0.292,-0.259l-0.086,0.512c-0.013,0.18 0.008,0.375 0.009,0.562c0.024,0.385 0.088,0.78 0.15,1.188c0.075,0.402 0.105,0.845 0.164,1.216c0.031,0.19 0.067,0.375 0.125,0.535c0.05,0.17 0.132,0.296 0.212,0.403l-0.647,0.237c-0.012,-0.109 -0.006,-0.215 -0.026,-0.329c-0.029,-0.115 -0.044,-0.232 -0.083,-0.347c-0.074,-0.235 -0.175,-0.462 -0.29,-0.685c-0.126,-0.217 -0.26,-0.427 -0.418,-0.614c-0.076,-0.096 -0.166,-0.169 -0.247,-0.256c-0.085,-0.078 -0.176,-0.126 -0.262,-0.195l0.537,-0.32l0.07,0.573l0.212,0.544c0.112,0.166 0.216,0.336 0.33,0.502l0.42,0.451l0.483,0.401l0.531,0.355c0.368,0.217 0.75,0.414 1.144,0.588l2.316,1.025l-2.504,-0.359c-0.766,-0.109 -1.558,-0.184 -2.328,-0.2c-0.383,-0.005 -0.777,0 -1.117,0.067c-0.165,0.013 -0.33,0.146 -0.286,0.053l-0.03,0.068l0.138,0.033l0.152,0.005l0,0.002c0,0.079 0.016,-0.106 0.012,-0.087l-0.012,-0.002l0,-0.005c0,-0.011 -0.144,-0.029 -0.149,-0.032c-0.013,-0.006 -0.033,0.036 0.019,0.067c0.26,0.137 0.624,0.213 0.995,0.266c0.38,0.053 0.751,0.084 1.143,0.106c0.784,0.043 1.557,0.045 2.358,0.038l0.015,0.642l-2.757,0.198c-0.462,0.046 -0.915,0.094 -1.364,0.163c-0.223,0.035 -0.447,0.073 -0.658,0.123c-0.106,0.024 -0.211,0.053 -0.303,0.085c-0.045,0.016 -0.097,0.033 -0.125,0.05l-0.043,0.021c0.021,-0.01 0.041,-0.04 0.04,-0.071c-0.003,-0.03 -0.02,0.037 -0.028,0.052l-0.081,0.005l-0.062,-0.108l0,-0.022c0,-0.015 0.074,-0.03 0.067,-0.043c-0.017,-0.031 0.019,-0.04 0.009,-0.054c-0.053,-0.046 0,-0.016 0.029,-0.012c0.068,0.019 0.18,0.035 0.285,0.04c0.21,0.014 0.439,0.01 0.664,0.001c0.45,-0.02 0.909,-0.065 1.364,-0.118c0.455,-0.053 0.911,-0.116 1.365,-0.186l0.679,-0.112c0.221,-0.039 0.464,-0.082 0.653,-0.128l0.078,0.565l-1.357,0.125c-0.456,0.052 -0.922,0.142 -1.382,0.211c-0.221,0.041 -0.488,0.072 -0.713,0.085l-0.685,0.067c-0.226,0.028 -0.449,0.063 -0.656,0.116c-0.103,0.026 -0.201,0.058 -0.283,0.095c-0.075,0.03 -0.131,0.098 -0.103,0.052l-0.193,-0.329c0.385,0.053 0.767,0.123 1.155,0.169l1.19,-0.016l1.189,-0.153c0.391,-0.078 0.779,-0.175 1.168,-0.261l0.044,0.503c-0.187,-0.005 -0.387,0.015 -0.618,0.075l-0.681,0.164l-1.38,0.331l-0.69,0.166c-0.211,0.046 -0.446,0.128 -0.658,0.199c-0.214,0.076 -0.43,0.161 -0.601,0.263c-0.092,0.031 -0.118,0.16 -0.101,0.005c0.001,-0.026 -0.032,-0.071 -0.047,-0.067l0.071,0.051c-0.014,-0.017 0.07,0.018 0.098,0.027c0.357,0.111 0.843,0.047 1.288,-0.023c0.446,-0.075 0.938,-0.19 1.399,-0.256l1.401,-0.229c0.237,-0.033 0.457,-0.089 0.709,-0.104c0.256,-0.008 0.451,-0.055 0.652,-0.091l0.089,0.39l-1.136,0.206c-0.381,0.076 -0.764,0.175 -1.147,0.26l-2.307,0.515l0.018,-0.324c0.156,0.018 0.305,0.057 0.467,0.064c0.166,-0.007 0.327,-0.003 0.497,-0.018l1.026,-0.101l2.025,-0.25l0.021,0.268c-0.218,0.005 -0.436,0.016 -0.655,0.07c-0.219,0.047 -0.434,0.112 -0.656,0.186c-0.214,0.075 -0.456,0.137 -0.669,0.199c-0.114,0.026 -0.206,0.076 -0.309,0.113c-0.099,0.042 -0.17,0.114 -0.259,0.168l-0.041,-0.188c0.301,0.103 0.655,0.091 0.986,0.026c0.333,-0.068 0.66,-0.193 0.935,-0.386c0.132,-0.1 0.258,-0.213 0.338,-0.352c0.095,-0.133 0.117,-0.293 0.114,-0.449c-0.011,-0.076 -0.031,-0.147 -0.052,-0.224l-0.119,-0.226c-0.096,-0.136 -0.212,-0.255 -0.347,-0.358c-0.562,-0.394 -1.283,-0.506 -1.961,-0.711c-0.339,-0.104 -0.695,-0.167 -1.021,-0.305l-1.367,-0.548l0.414,0.059ZM1224.46,51.213l0.584,0.224c0.329,0.133 0.679,0.188 1.017,0.286c0.668,0.194 1.397,0.287 2.017,0.704c0.15,0.11 0.282,0.241 0.394,0.395c0.102,0.16 0.178,0.316 0.208,0.529c0.01,0.194 -0.023,0.401 -0.132,0.563c-0.097,0.169 -0.238,0.299 -0.385,0.414c-0.302,0.218 -0.648,0.355 -1.006,0.435c-0.357,0.073 -0.735,0.101 -1.11,-0.02l-0.213,-0.069l0.173,-0.119c0.104,-0.073 0.204,-0.166 0.317,-0.216c0.114,-0.045 0.229,-0.104 0.341,-0.131c0.232,-0.071 0.439,-0.127 0.661,-0.207c0.217,-0.076 0.446,-0.15 0.678,-0.204c0.232,-0.06 0.477,-0.079 0.724,-0.086l0.019,0.268l-2.056,0.285l-1.021,0.116c-0.172,0.018 -0.354,0.018 -0.531,0.027c-0.181,-0.005 -0.369,-0.045 -0.553,-0.069l-0.863,-0.113l0.881,-0.211l2.286,-0.546c0.383,-0.092 0.759,-0.195 1.147,-0.279l1.18,-0.23l0.089,0.39c-0.262,0.062 -0.53,0.117 -0.747,0.125c-0.221,0.015 -0.463,0.076 -0.693,0.112l-1.396,0.251c-0.474,0.075 -0.902,0.186 -1.388,0.276c-0.477,0.074 -0.964,0.173 -1.52,0.017c-0.081,-0.033 -0.115,-0.029 -0.235,-0.097l-0.072,-0.051c-0.048,-0.042 -0.121,-0.137 -0.136,-0.218c-0.032,-0.201 0.08,-0.322 0.132,-0.374c0.067,-0.072 0.124,-0.102 0.186,-0.145c0.236,-0.141 0.464,-0.227 0.694,-0.312c0.236,-0.08 0.447,-0.156 0.697,-0.215l0.689,-0.17l1.378,-0.339l0.696,-0.172c0.228,-0.06 0.499,-0.102 0.785,-0.089l1.856,0.087l-1.813,0.416c-0.406,0.094 -0.81,0.197 -1.219,0.281l-1.239,0.166l-1.259,0.024c-0.423,-0.045 -0.846,-0.118 -1.269,-0.18l-0.291,-0.042l0.099,-0.288c0.097,-0.281 0.273,-0.333 0.396,-0.409c0.131,-0.061 0.257,-0.101 0.379,-0.133c0.246,-0.064 0.485,-0.102 0.724,-0.133l0.709,-0.074c0.242,-0.016 0.439,-0.041 0.678,-0.085c0.463,-0.072 0.916,-0.163 1.388,-0.22l1.434,-0.138l0.078,0.564c-0.259,0.067 -0.473,0.103 -0.709,0.147l-0.689,0.117c-0.46,0.074 -0.921,0.14 -1.385,0.197c-0.464,0.057 -0.929,0.106 -1.403,0.13c-0.238,0.011 -0.477,0.018 -0.729,0.003c-0.126,-0.008 -0.254,-0.021 -0.409,-0.063c-0.079,-0.031 -0.165,-0.037 -0.294,-0.173c-0.029,-0.034 -0.055,-0.063 -0.076,-0.124c-0.01,-0.027 0.207,-0.056 0.202,-0.085l0.219,-0.043l0,-0.01c0,0.086 -0.205,-0.131 -0.209,-0.109l-0.11,-0.005c0.017,-0.036 -0.05,-0.033 -0.009,-0.101c0.044,-0.068 0.079,-0.135 0.145,-0.183c0.045,-0.029 0.057,-0.04 0.095,-0.06c0.072,-0.04 0.126,-0.058 0.19,-0.082c0.126,-0.044 0.242,-0.077 0.361,-0.105c0.237,-0.058 0.469,-0.098 0.703,-0.137c0.465,-0.074 0.933,-0.127 1.391,-0.174l2.781,-0.218l0.019,0.641c-0.789,0.011 -1.597,0.015 -2.402,-0.025c-0.402,-0.02 -0.807,-0.05 -1.215,-0.104c-0.412,-0.065 -0.814,-0.112 -1.266,-0.338c-0.114,-0.073 -0.242,-0.139 -0.35,-0.325c-0.05,-0.091 -0.108,-0.206 -0.102,-0.317l-0.022,-0.042l0,-0.02l0.051,-0.094l0.014,-0.005l0.023,-0.033l0.033,-0.069c0.025,-0.052 0.13,-0.17 0.215,-0.232c0.103,-0.081 0.134,-0.071 0.205,-0.109c0.129,-0.061 0.234,-0.072 0.35,-0.104c0.441,-0.087 0.849,-0.089 1.26,-0.088c0.82,0.013 1.615,0.084 2.423,0.194l-0.189,0.666c-0.422,-0.184 -0.835,-0.393 -1.237,-0.627l-0.584,-0.386l-0.548,-0.45l-0.494,-0.526c-0.143,-0.198 -0.274,-0.407 -0.409,-0.613c-0.099,-0.229 -0.188,-0.466 -0.276,-0.701l-0.097,-0.754l-0.097,-0.762l0.634,0.442c0.134,0.092 0.284,0.18 0.4,0.286c0.107,0.109 0.229,0.213 0.323,0.33c0.195,0.23 0.358,0.479 0.508,0.734c0.137,0.262 0.26,0.532 0.351,0.82c0.048,0.143 0.075,0.298 0.11,0.447c0.027,0.155 0.027,0.325 0.037,0.487l0.065,1.067l-0.713,-0.83c-0.37,-0.431 -0.457,-0.905 -0.536,-1.328c-0.071,-0.439 -0.095,-0.817 -0.172,-1.222c-0.063,-0.402 -0.134,-0.819 -0.165,-1.252c-0.004,-0.222 -0.026,-0.438 -0.011,-0.666l0.119,-0.701l0.041,-0.246l0.251,-0.014c0.209,-0.012 0.441,-0.022 0.606,0.066c0.196,0.061 0.318,0.166 0.456,0.264c0.248,0.206 0.444,0.434 0.613,0.665c0.086,0.116 0.168,0.232 0.243,0.348c0.086,0.134 0.133,0.192 0.236,0.376l0.373,0.715c0.135,0.225 0.197,0.546 0.295,0.817c0.104,0.285 0.16,0.565 0.195,0.842c0.038,0.277 0.109,0.558 0.112,0.833l0.049,0.832l0.135,2.287l-0.895,-2.074c-0.065,-0.149 -0.155,-0.314 -0.175,-0.458c-0.04,-0.149 -0.065,-0.295 -0.074,-0.434c-0.032,-0.283 -0.027,-0.549 -0.021,-0.813c0.025,-0.539 0.055,-0.988 0.045,-1.506l0.011,-0.768c0.009,-0.259 0.003,-0.514 0.041,-0.782l0.043,-0.398c0.021,-0.133 0.015,-0.263 0.061,-0.399l0.226,-0.809l0.198,-0.708l0.478,0.552c0.095,0.111 0.213,0.235 0.274,0.352c0.054,0.115 0.125,0.237 0.159,0.349c0.081,0.229 0.132,0.45 0.176,0.67c0.077,0.434 0.111,0.865 0.146,1.27c0.01,0.175 0.002,0.226 0.003,0.345l-0.002,0.31l-0.005,0.62l-0.11,1.27l-0.874,0.032l-0.025,-0.395l-0.021,-0.415l0.014,-0.721l0.013,-0.722c0.003,-0.15 0.016,-0.248 0.024,-0.375l0.029,-0.36c0.045,-0.485 0.057,-0.955 0.142,-1.459c0.046,-0.251 0.056,-0.497 0.134,-0.751l0.231,-0.76l0.291,-0.955l0.486,0.881c0.108,0.196 0.222,0.393 0.321,0.593c0.075,0.205 0.157,0.41 0.225,0.617c0.115,0.417 0.193,0.834 0.245,1.25c0.095,0.832 0.089,1.651 0.086,2.449l-0.858,-0.002l0.118,-1.254l0.031,-0.313l0.014,-0.157c0.006,-0.036 0,-0.029 0.014,-0.101l0.019,-0.074l0.148,-0.586c0.194,-0.786 0.406,-1.555 0.615,-2.328l0.188,-0.697l0.465,0.445c0.117,0.112 0.242,0.225 0.339,0.349c0.077,0.133 0.168,0.268 0.221,0.404c0.108,0.275 0.165,0.547 0.199,0.812c0.029,0.263 0.039,0.52 0.04,0.772l-0.003,0.37l-0.007,0.383c-0.021,0.474 -0.083,0.974 -0.169,1.48l-0.098,0.695l-0.019,0.662l-0.792,0.061l0.021,-0.73c-0.006,-0.25 0.065,-0.464 0.097,-0.697l0.06,-0.342l0.088,-0.337l0.169,-0.644l0.338,-1.288c0.061,-0.219 0.094,-0.418 0.165,-0.652c0.04,-0.118 0.067,-0.232 0.117,-0.354l0.2,-0.377l0.224,-0.422l0.311,0.34c0.124,0.137 0.294,0.293 0.345,0.448c0.055,0.154 0.137,0.323 0.143,0.466c0.055,0.302 0.051,0.582 0.041,0.859c-0.016,0.274 -0.045,0.541 -0.082,0.803l-0.115,0.773l-0.121,0.764c-0.034,0.253 -0.129,0.529 -0.192,0.791c-0.064,0.271 -0.147,0.53 -0.245,0.763c-0.107,0.252 -0.132,0.447 -0.207,0.672l-0.695,-0.192c0.252,-0.497 0.491,-1.002 0.756,-1.491l0.792,-1.42c0.508,-0.953 1.161,-1.865 1.736,-2.798l0.799,-1.298l-0.175,1.502l-0.11,0.941c-0.019,0.319 -0.171,0.597 -0.251,0.897c-0.054,0.152 -0.089,0.282 -0.158,0.452l-0.186,0.402l-0.374,0.804l-0.188,0.401c-0.052,0.119 -0.135,0.29 -0.207,0.414l-0.426,0.773c-0.149,0.257 -0.261,0.512 -0.377,0.768c-0.131,0.255 -0.158,0.514 -0.248,0.771l-0.518,-0.307c0.053,-0.084 0.107,-0.153 0.174,-0.233l0.235,-0.371c0.101,-0.127 0.183,-0.21 0.274,-0.318l0.27,-0.305l1.095,-1.231l1.096,-1.204l0.55,-0.603c0.099,-0.102 0.178,-0.203 0.301,-0.311c0.064,-0.053 0.117,-0.105 0.191,-0.158c0.096,-0.052 0.201,-0.097 0.303,-0.133l0.218,-0.075l0.088,0.208c0.065,0.153 0.156,0.31 0.179,0.471c0.005,0.16 0.042,0.336 -0.001,0.48c-0.047,0.307 -0.16,0.577 -0.296,0.819c-0.132,0.248 -0.29,0.472 -0.462,0.681c-0.082,0.108 -0.174,0.208 -0.266,0.308c-0.12,0.128 -0.196,0.186 -0.296,0.283l-1.13,1.047l-0.283,0.262c-0.127,0.114 -0.201,0.168 -0.318,0.258c-0.116,0.085 -0.23,0.171 -0.387,0.234c-0.136,0.083 -0.327,0.086 -0.494,0.109l-0.353,0.049l0.078,-0.35c0.043,-0.203 0.139,-0.388 0.234,-0.472c0.094,-0.122 0.193,-0.199 0.292,-0.285c0.197,-0.168 0.4,-0.307 0.606,-0.442c0.418,-0.278 0.818,-0.484 1.202,-0.767c0.401,-0.272 0.81,-0.543 1.271,-0.756c0.232,-0.104 0.474,-0.202 0.764,-0.236c0.146,-0.011 0.308,-0.017 0.479,0.054c0.053,0.026 0.062,0.016 0.148,0.075l0.071,0.054c0.035,0.021 0.181,0.182 0.189,0.29c0.059,0.259 -0.068,0.447 -0.153,0.554c-0.094,0.123 -0.195,0.209 -0.296,0.295c-0.204,0.164 -0.415,0.297 -0.626,0.422l-1.23,0.734c-0.419,0.239 -0.832,0.487 -1.275,0.696c-0.425,0.235 -0.898,0.389 -1.355,0.57l-0.116,-0.479l1.106,-0.26l1.118,-0.322l1.159,-0.262l1.213,-0.067l0.63,-0.035l-0.477,0.427c-0.188,0.168 -0.364,0.209 -0.528,0.258c-0.165,0.041 -0.325,0.067 -0.48,0.092c-0.313,0.037 -0.58,0.102 -0.894,0.189l-1.806,0.471c-0.606,0.145 -1.18,0.329 -1.8,0.488c-0.308,0.076 -0.622,0.141 -0.948,0.174c-0.326,0.036 -0.665,0.017 -1.003,-0.059l-1.522,-0.341l1.561,-0.066c0.598,-0.026 1.155,0.005 1.729,0.029c0.57,0.027 1.14,0.066 1.708,0.115c1.138,0.111 2.274,0.214 3.403,0.546c0.141,0.046 0.282,0.1 0.423,0.172c0.131,0.081 0.312,0.158 0.386,0.419c0.023,0.064 0.002,0.128 -0.01,0.191l-0.006,0.024c-0.012,0.024 0.026,-0.038 -0.03,0.057l-0.004,0.005l-0.017,0.02c-0.016,0.015 -0.016,0.023 -0.044,0.044c-0.052,0.039 -0.129,0.081 -0.18,0.096l-0.124,0.028c-0.159,0.026 -0.308,0.033 -0.455,0.034c-0.587,0 -1.154,-0.065 -1.724,-0.137c-0.582,-0.069 -1.118,-0.226 -1.679,-0.334l-1.666,-0.36l0.126,-0.292c0.214,0.14 0.593,0.194 0.913,0.266l1.005,0.201c0.668,0.141 1.343,0.249 2.015,0.374c0.663,0.119 1.348,0.238 2.016,0.403c0.335,0.083 0.669,0.172 1,0.295c0.165,0.062 0.329,0.13 0.491,0.222c0.139,0.11 0.378,0.183 0.391,0.531l0.004,0.125l-0.121,0.013c-0.318,0.035 -0.645,0.125 -0.955,0.082c-0.316,-0.006 -0.623,-0.04 -0.925,-0.084l-0.907,-0.111l-0.903,-0.134l-0.902,-0.135l-0.469,-0.07l-0.442,-0.114c-0.592,-0.162 -1.174,-0.283 -1.756,-0.412l0.05,-0.355c0.613,0.106 1.218,0.253 1.809,0.466c0.294,0.112 0.583,0.238 0.863,0.393c0.28,0.158 0.54,0.356 0.774,0.599l0.34,0.354l-0.479,-0.042c-0.226,-0.02 -0.461,-0.021 -0.681,-0.06c-0.216,-0.046 -0.441,-0.079 -0.65,-0.137l-1.257,-0.321c-0.423,-0.103 -0.837,-0.195 -1.255,-0.262c-0.21,-0.023 -0.419,-0.061 -0.628,-0.072l-0.626,-0.01l0.186,-0.149c-0.024,0.063 0.045,0.159 0.21,0.25c0.155,0.084 0.341,0.147 0.53,0.2c0.381,0.101 0.781,0.166 1.184,0.217c0.805,0.101 1.621,0.145 2.442,0.179c0.409,0.028 0.809,0.012 1.235,0.038c0.21,0.011 0.42,0.029 0.637,0.065c0.218,0.057 0.435,0.041 0.699,0.3l0.043,0.062c0.013,0.03 0.001,-0.023 0.033,0.075l0.005,0.019l0.017,0.074c0.015,0.099 -0.036,0.281 -0.088,0.318c-0.107,0.145 -0.22,0.193 -0.328,0.252c-0.215,0.102 -0.423,0.158 -0.631,0.209c-0.209,0.049 -0.416,0.086 -0.623,0.119l-0.599,0.087l-0.003,-0.445l1.384,0.194l-0.056,0.457l-1.821,-0.193l-0.892,-0.086c-0.295,-0.039 -0.599,-0.03 -0.902,-0.041l-0.913,-0.026c-0.305,-0.012 -0.609,-0.012 -0.918,-0.051c-0.308,-0.038 -0.618,-0.043 -0.924,-0.109l-0.919,-0.206l0.208,-0.448c0.206,0.073 0.375,0.191 0.605,0.236c0.226,0.049 0.441,0.117 0.679,0.144l0.708,0.101l0.349,0.042l0.36,0.033l0.72,0.065c0.239,0.016 0.483,0.058 0.716,0.045l1.413,-0.006l-0.249,0.258c0.011,0.023 -0.032,-0.054 -0.132,-0.112c-0.094,-0.061 -0.222,-0.111 -0.349,-0.156l-0.181,-0.057l-0.217,-0.046l-0.435,-0.091c-0.289,-0.056 -0.581,-0.131 -0.868,-0.172l-0.86,-0.078c-0.566,-0.071 -1.101,-0.056 -1.685,-0.077c-0.588,-0.014 -1.711,0 -1.711,-0.001l0,-0.572l5.697,0.227c0.235,0.004 0.439,0.005 0.667,-0.006c0.222,-0.012 0.454,-0.034 0.601,-0.085c0.043,-0.007 0.07,-0.031 0.039,0.011c-0.016,0.017 -0.004,0.04 -0.004,0.063l0,0.112l0,-0.006l-0.039,-0.022l-0.028,-0.089c-0.03,-0.033 -0.013,0.086 -0.001,0.063c-0.032,-0.014 -0.061,-0.032 -0.092,-0.051c-0.169,-0.07 -0.393,-0.12 -0.617,-0.156c-0.451,-0.073 -0.928,-0.106 -1.408,-0.147c-0.241,-0.022 -0.482,-0.042 -0.731,-0.076c-0.123,-0.014 -0.253,-0.036 -0.386,-0.066c-0.134,-0.038 -0.28,-0.056 -0.487,-0.222l-0.291,-0.234l0.284,-0.22c0.364,-0.284 0.628,-0.249 0.87,-0.286l0.698,-0.052l1.379,-0.103c0.46,-0.039 0.914,-0.057 1.377,-0.078l0.691,-0.033l0.328,-0.016c0.105,-0.007 0.253,-0.041 0.214,-0.027c0.026,-0.028 0.025,0.108 0.041,0.207c-0.012,0.052 0.198,0.116 0.198,0.153l0,0.012c0,0.026 -0.209,-0.029 -0.227,-0.044c0.004,0.013 -0.285,-0.12 -0.312,-0.093c-0.097,-0.031 -0.402,-0.05 -0.597,-0.047c-0.212,0.002 -0.455,0.02 -0.677,0.042c-0.206,0.021 -0.493,0.06 -0.717,0.07l-1.386,0.09l-0.701,0.039c-0.225,0.004 -0.483,0.043 -0.849,-0.082l-0.97,-0.331l0.987,-0.346c0.312,-0.11 0.545,-0.141 0.805,-0.192l0.751,-0.125l1.491,-0.228c0.494,-0.078 0.986,-0.159 1.468,-0.257c0.24,-0.05 0.478,-0.104 0.703,-0.168c0.113,-0.032 0.218,-0.069 0.314,-0.107c0.083,-0.012 0.181,-0.152 0.079,0.014c-0.015,0.035 -0.021,0.08 -0.015,0.119l-0.08,0.015c-0.002,-0.01 -0.067,0.114 -0.067,0.06l0,-0.003l0.078,-0.011l0.034,-0.022c-0.007,-0.03 -0.006,-0.077 0.008,-0.023c0.041,0.068 0.044,0.042 0.034,0.042c-0.023,-0.018 -0.118,-0.035 -0.209,-0.042c-0.2,-0.013 -0.433,0.008 -0.667,0.041c-0.471,0.067 -0.952,0.179 -1.434,0.297l-1.463,0.369c-0.248,0.06 -0.496,0.119 -0.757,0.169c-0.133,0.023 -0.264,0.046 -0.411,0.06c-0.153,0.004 -0.277,0.047 -0.576,-0.055l-0.786,-0.269l0.701,-0.433l0.624,-0.385c0.211,-0.114 0.428,-0.186 0.642,-0.281c0.426,-0.168 0.864,-0.293 1.27,-0.426l0.634,-0.194c0.221,-0.062 0.425,-0.118 0.605,-0.184c0.174,-0.067 0.354,-0.147 0.43,-0.23c0.062,-0.038 0.061,-0.076 0.08,-0.099c0.025,-0.026 -0.013,-0.066 0.015,-0.1l0.365,0.36c-0.18,-0.014 -0.371,-0.009 -0.574,0.025c-0.204,0.039 -0.412,0.095 -0.621,0.166c-0.422,0.144 -0.843,0.336 -1.305,0.517l-0.629,0.285l-0.623,0.31l-0.699,0.296c-0.256,0.078 -0.541,0.128 -0.813,0.183l-1.294,0.262l0.907,-0.98c0.122,-0.133 0.263,-0.283 0.381,-0.354c0.126,-0.096 0.242,-0.169 0.357,-0.239l0.667,-0.409l0.671,-0.403l0.194,-0.115l0.173,-0.093l0.346,-0.183l0.691,-0.367l0.346,-0.184l0.087,-0.046l0.114,-0.053l0.179,-0.08c0.229,-0.108 0.5,-0.205 0.701,-0.314c0.097,-0.055 0.216,-0.103 0.298,-0.162c0.072,-0.061 0.146,-0.117 0.225,-0.172l0.447,0.749l-1.002,0.344c-0.334,0.112 -0.669,0.218 -0.992,0.382l-1.97,0.91l-0.986,0.464c-0.327,0.156 -0.662,0.304 -0.958,0.485l-0.458,0.259c-0.149,0.09 -0.316,0.162 -0.439,0.276l-0.796,0.628l-0.567,-0.712l2.359,-1.391l1.179,-0.695l0.613,-0.357l0.608,-0.309l1.215,-0.619l1.32,-0.502c0.451,-0.169 0.872,-0.329 1.306,-0.468c0.22,-0.075 0.439,-0.149 0.698,-0.202c0.233,-0.076 0.538,-0.07 0.816,-0.081l-0.041,0.925c-0.491,0 -0.983,-0.004 -1.46,0.013c-0.486,0 -0.95,0.057 -1.418,0.103l-0.676,0.132c-0.161,0.012 -0.443,0.145 -0.659,0.211c-0.229,0.085 -0.476,0.156 -0.669,0.266l-0.617,0.303c-0.417,0.223 -0.837,0.466 -1.258,0.714c-0.413,0.25 -0.854,0.511 -1.284,0.744c-0.421,0.241 -0.882,0.464 -1.277,0.712c-0.196,0.127 -0.417,0.233 -0.592,0.376l-0.544,0.413l-0.652,-0.676l1.74,-1.561l1.95,-1.283l2.111,-0.992l2.235,-0.675l0.069,0.936c-0.345,0.006 -0.69,-0.001 -1.035,0.011c-0.345,0.054 -0.692,0.095 -1.037,0.155l-1.017,0.277l-0.985,0.387l-0.938,0.489c-0.297,0.188 -0.583,0.393 -0.876,0.586c-0.273,0.217 -0.528,0.455 -0.795,0.68c-0.237,0.251 -0.453,0.518 -0.684,0.774l-0.648,-0.686l0.241,-0.222c0.085,-0.075 0.203,-0.213 0.303,-0.316l0.079,-0.083l0.02,-0.021l0.041,-0.035l0.041,-0.034l0.165,-0.138l0.331,-0.274c0.217,-0.184 0.441,-0.365 0.679,-0.536l0.692,-0.517c0.23,-0.183 0.425,-0.357 0.644,-0.544c0.218,-0.191 0.451,-0.379 0.69,-0.564c0.246,-0.182 0.509,-0.355 0.805,-0.505c0.148,-0.074 0.323,-0.127 0.485,-0.186c0.176,-0.046 0.38,-0.056 0.569,-0.073l-0.174,0.939c-0.072,-0.004 -0.131,-0.031 -0.246,-0.02c-0.096,-0.008 -0.212,0.02 -0.319,0.031l-0.159,0.04l-0.04,0.01l-0.01,0.002c0.021,-0.008 -0.056,0.021 0.048,-0.018l-0.006,0.002l-0.023,0.011l-0.093,0.044l-0.37,0.175c-0.25,0.116 -0.428,0.265 -0.648,0.392l-0.685,0.432c-0.238,0.143 -0.445,0.296 -0.666,0.444c-0.223,0.145 -0.436,0.299 -0.632,0.467c-0.194,0.17 -0.423,0.311 -0.587,0.503l-0.527,0.547l-0.785,-0.57l0.982,-1.306l1.075,-1.178l1.066,-1.133l0.966,-1.168l0.279,0.763c-0.032,0.031 -0.04,-0.017 -0.111,0.029c-0.052,0.005 -0.133,0.066 -0.21,0.117c-0.159,0.117 -0.324,0.287 -0.485,0.47l-0.515,0.607l-0.546,0.568l-1.09,1.127c-0.102,0.107 -0.188,0.191 -0.307,0.3l-0.271,0.254c-0.081,0.082 -0.153,0.162 -0.206,0.233c-0.055,0.074 -0.067,0.126 -0.078,0.138l-1.09,1.183l0.113,-1.225c0.018,-0.199 0.022,-0.451 0.097,-0.597c0.061,-0.17 0.128,-0.335 0.212,-0.465c0.154,-0.289 0.337,-0.527 0.52,-0.76c0.181,-0.234 0.375,-0.451 0.558,-0.661l0.535,-0.629l1.079,-1.29l0.265,-0.318c0.084,-0.107 0.186,-0.225 0.244,-0.316c0.077,-0.098 0.133,-0.193 0.179,-0.286c0.069,-0.1 0.052,-0.165 0.095,-0.244l0.456,0.567c-0.047,0.036 -0.068,-0.014 -0.141,0.039c-0.061,0.028 -0.129,0.054 -0.205,0.122c-0.148,0.1 -0.302,0.263 -0.448,0.43c-0.28,0.32 -0.601,0.771 -0.92,1.127c-0.311,0.366 -0.596,0.733 -0.824,1.112c-0.121,0.188 -0.202,0.379 -0.279,0.564l-0.071,0.265c0.005,0.076 0.003,0.15 -0.006,0.225l-0.969,-0.084c0.166,-0.445 0.352,-0.869 0.57,-1.248l0.625,-1.112l0.651,-1.106c0.122,-0.188 0.176,-0.345 0.27,-0.517c0.086,-0.171 0.079,-0.302 0.14,-0.453l0.597,0.511l-0.572,0.209c-0.167,0.122 -0.341,0.231 -0.509,0.352c-0.143,0.159 -0.295,0.307 -0.435,0.469c-0.116,0.186 -0.24,0.366 -0.354,0.555l-0.276,0.612l-0.199,0.65l-0.123,0.454l-0.045,0.459l-0.935,0l-0.041,-1.881l-0.217,-1.953l0.897,-0.01l-0.167,2.278l-0.134,2.199l-0.867,-0.029c-0.003,-0.122 -0.02,-0.269 -0.075,-0.466c-0.027,-0.103 -0.054,-0.189 -0.08,-0.316l-0.037,-0.179c0.002,0.016 -0.02,-0.082 -0.03,-0.118l-0.149,-0.605c-0.041,-0.21 -0.123,-0.38 -0.185,-0.568l-0.412,-1.165c-0.158,-0.388 -0.212,-0.864 -0.317,-1.292l0.812,-0.164c0.039,0.205 0.038,0.415 -0.016,0.559c-0.037,0.174 -0.107,0.268 -0.163,0.4l-0.339,0.586c-0.055,0.092 -0.072,0.16 -0.103,0.232c-0.002,0.04 0.021,0.086 0.029,0.225l0.045,0.679l0,0.339c0,0.003 -0.028,0.22 -0.002,0.265c0.035,0.069 0.012,0.117 0.066,0.22l0.128,0.283c0.099,0.196 0.214,0.394 0.313,0.639c0.055,0.11 0.09,0.252 0.125,0.392c0.044,0.13 0.026,0.316 0.028,0.471l-0.77,0.058l-0.301,-1.628l-0.311,-1.553c-0.114,-0.526 -0.211,-1.049 -0.303,-1.571c-0.021,-0.118 -0.052,-0.277 -0.082,-0.405l-0.09,-0.392c-0.063,-0.257 -0.076,-0.611 -0.104,-0.911l0.711,-0.112l0.464,1.619c0.126,0.518 0.237,1.033 0.375,1.555l0.454,1.558c0.077,0.266 0.148,0.511 0.235,0.768c0.084,0.24 0.184,0.542 0.199,0.894l0.054,1.257l-0.661,-1.032c-0.2,-0.313 -0.452,-0.657 -0.598,-0.951l-0.514,-0.923c-0.173,-0.308 -0.337,-0.607 -0.528,-0.872c-0.091,-0.14 -0.197,-0.254 -0.297,-0.364l-0.157,-0.14c-0.051,-0.022 -0.098,-0.048 -0.146,-0.079l0.336,-0.547l0.722,0.83l0.67,0.819c0.212,0.27 0.469,0.496 0.719,0.781c0.237,0.287 0.527,0.583 0.59,1.112l0.089,0.738l-0.561,-0.454l-0.484,-0.39l-0.379,-0.348l-0.906,-0.628c-0.295,-0.222 -0.583,-0.467 -0.863,-0.666c-0.144,-0.097 -0.287,-0.19 -0.431,-0.262c-0.144,-0.073 -0.281,-0.11 -0.397,-0.125l0.266,-0.436c0.089,0.111 0.141,0.232 0.262,0.341c0.101,0.113 0.219,0.223 0.345,0.329l0.768,0.657l1.547,1.322l1.679,1.436l-1.985,-0.968l-1.878,-0.916l-1.866,-0.995l0.299,-0.437l1.081,0.71l1.173,0.606l1.199,0.605l1.167,0.711l-0.233,0.428l-4.355,-1.635l0.202,-0.403c0.28,0.177 0.576,0.333 0.892,0.465c0.319,0.125 0.646,0.246 0.979,0.36c0.334,0.116 0.668,0.245 1,0.39l0.487,0.253l0.458,0.318l0.901,0.625l-1.068,-0.276l-1.071,-0.278c-0.091,-0.028 -0.157,-0.03 -0.26,-0.043l-0.277,-0.032c-0.183,-0.021 -0.368,-0.046 -0.547,-0.046c-0.36,-0.01 -0.726,-0.026 -1.108,-0.059c-0.376,0 -0.755,-0.139 -1.13,-0.213l0.139,-0.302c0.301,0.161 0.621,0.291 0.96,0.387c0.341,0.09 0.688,0.168 1.042,0.241c0.353,0.071 0.708,0.158 1.061,0.259l0.523,0.192l0.496,0.263l-0.144,0.232c-0.261,-0.147 -0.541,-0.26 -0.839,-0.337c-0.3,-0.07 -0.607,-0.122 -0.918,-0.162l-0.943,-0.125c-0.317,-0.051 -0.631,-0.126 -0.941,-0.229l0.072,-0.207l2.133,0.807l2.152,0.711l-0.039,0.15l-0.936,-0.2c-0.31,-0.079 -0.628,-0.092 -0.948,-0.131l-0.96,-0.051c-0.175,-0.002 -0.349,-0.043 -0.524,-0.073" style="fill:#002800;fill-rule:nonzero;"/><rect x="1250.75" y="53.313" width="1" height="6" style="fill:#00002b;fill-rule:nonzero;"/><rect x="1256.75" y="53.313" width="1" height="4" style="fill:#00002b;fill-rule:nonzero;"/><g><g opacity="0.800003"><clipPath id="_clip3"><rect x="1275.75" y="39.313" width="26" height="21"/></clipPath><g clip-path="url(#_clip3)"><path d="M1301.75,60.313l0,-21.001l-2,0.001l-18,7l0,2l1,0.656l0,7.344l-7,0l0,4l7,0l0,-3l1,0l0,3l7,0l0,-3l1,0l0,3l8,0l0,-3l1,0l0,3l1,0Z" style="fill:#a69e91;fill-rule:nonzero;"/></g></g></g><path d="M1257.75,40.313l11,-0.001l-15,5.813l0,2.187l-12,0l0.5,-1.625l15.5,-6.375Z" style="fill:#ba4500;fill-rule:nonzero;"/><path d="M1259.75,48.313l7,-0.001l0,-2l12.376,-5.458c0,0 -5.209,2.583 -4.876,-0.292l-14.5,6.167l0,1.583Z" style="fill:#ba4500;fill-rule:nonzero;"/><path d="M1269.75,48.313l0,-2.001l15.208,-7l3.792,0l0.646,2.084l-8.646,4.25l0,2.666l-11,0Z" style="fill:#ba4500;fill-rule:nonzero;"/><path d="M1302.13,37.731c-0.101,-0.373 -0.178,-0.75 -0.2,-1.137l-6.177,-2.282l-3,0.001l8,4l1.335,0c0.011,-0.195 0.019,-0.39 0.042,-0.582" style="fill:#ba4500;fill-rule:nonzero;"/><path d="M1243.75,49.313l15,-0.001l-0.67,1l-14.33,0l0,-1Z" style="fill:#655048;fill-rule:nonzero;"/><rect x="1275.75" y="53.313" width="1" height="4" style="fill:#00002b;fill-rule:nonzero;"/><rect x="1278.75" y="55.313" width="1" height="4" style="fill:#00002b;fill-rule:nonzero;"/><path d="M1238.92,111.105l6.282,18.957l-8.448,11.601l-4.167,1.582l-22.532,-21.244l23.365,15.998l-13.834,-45.686l14.602,29l-0.601,-7.375l-0.167,-4.254l5.5,1.421Z" style="fill:#8e8769;fill-rule:nonzero;"/><path d="M1295.75,129.313l6,8.685l0,-68.686l-8.332,4.769l-4.668,19.399l-9.177,4.666l2.011,4.333l-10.834,21.271l7.001,-4.771l17.999,10.333Z" style="fill:#8e8769;fill-rule:nonzero;"/><path d="M1258.75,148.147l-3.998,38.449l13.999,-0.084l-4.001,-22.964l12,22.914l14.333,-0.085l-1.687,-26.201l-2.145,-12.196l-10.314,-7.48l-17.937,6.688" style="fill:#8e8769;fill-rule:nonzero;"/><path d="M1173.75,144.313l-12.375,23.333l-3.292,-15.209l-3.708,33.495l32.375,-0.053l8.125,-13.817l-8.125,5l-0.75,-15.5l-2.625,-4.875l-1.875,18.875l-5.25,-24.75l-2.5,-6.5Z" style="fill:#8e8769;fill-rule:nonzero;"/></g></g></g></g></svg>